# WaveFront *.obj file (generated by Autodesk ATF)

mtllib RAMP.mtl

g Body1

v 11.000000 0.000000 15.000000
v 19.800000 0.000000 12.000000
v 28.600000 0.000000 9.000000
v 37.400000 0.000000 6.000000
v 46.200000 0.000000 3.000000
v 55.000000 0.000000 0.000000
v 55.000000 9.200000 0.000000
v 55.000000 18.400000 0.000000
v 55.000000 27.600000 0.000000
v 55.000000 36.800000 0.000000
v 55.000000 46.000000 0.000000
v 46.200000 46.000000 3.000000
v 37.400000 46.000000 6.000000
v 28.600000 46.000000 9.000000
v 19.800000 46.000000 12.000000
v 11.000000 46.000000 15.000000
v 11.000000 36.800000 15.000000
v 11.000000 27.600000 15.000000
v 11.000000 18.400000 15.000000
v 11.000000 9.200000 15.000000
v 46.200000 11.500000 3.000000
v 37.400000 11.500000 6.000000
v 28.600000 11.500000 9.000000
v 19.800000 11.500000 12.000000
v 46.200000 23.000000 3.000000
v 37.400000 23.000000 6.000000
v 28.600000 23.000000 9.000000
v 19.800000 23.000000 12.000000
v 46.200000 34.500000 3.000000
v 37.400000 34.500000 6.000000
v 28.600000 34.500000 9.000000
v 19.800000 34.500000 12.000000
v -11.000000 0.000000 15.000000
v 0.000000 0.000000 15.000000
v 0.000000 46.000000 15.000000
v -11.000000 46.000000 15.000000
v -11.000000 36.800000 15.000000
v -11.000000 27.600000 15.000000
v -11.000000 18.400000 15.000000
v -11.000000 9.200000 15.000000
v 0.000000 11.500000 15.000000
v 0.000000 23.000000 15.000000
v 0.000000 34.500000 15.000000
v -55.000000 0.000000 0.000000
v -46.200000 0.000000 3.000000
v -37.400000 0.000000 6.000000
v -28.600000 0.000000 9.000000
v -19.800000 0.000000 12.000000
v -19.800000 46.000000 12.000000
v -28.600000 46.000000 9.000000
v -37.400000 46.000000 6.000000
v -46.200000 46.000000 3.000000
v -55.000000 46.000000 0.000000
v -55.000000 36.800000 0.000000
v -55.000000 27.600000 0.000000
v -55.000000 18.400000 0.000000
v -55.000000 9.200000 0.000000
v -19.800000 11.500000 12.000000
v -28.600000 11.500000 9.000000
v -37.400000 11.500000 6.000000
v -46.200000 11.500000 3.000000
v -19.800000 23.000000 12.000000
v -28.600000 23.000000 9.000000
v -37.400000 23.000000 6.000000
v -46.200000 23.000000 3.000000
v -19.800000 34.500000 12.000000
v -28.600000 34.500000 9.000000
v -37.400000 34.500000 6.000000
v -46.200000 34.500000 3.000000
v 44.000000 0.000000 0.000000
v 33.000000 0.000000 0.000000
v 22.000000 0.000000 0.000000
v 11.000000 0.000000 0.000000
v 0.000000 0.000000 0.000000
v -11.000000 0.000000 0.000000
v -22.000000 0.000000 0.000000
v -33.000000 0.000000 0.000000
v -44.000000 0.000000 0.000000
v -44.000000 46.000000 0.000000
v -33.000000 46.000000 0.000000
v -22.000000 46.000000 0.000000
v -11.000000 46.000000 0.000000
v 0.000000 46.000000 0.000000
v 11.000000 46.000000 0.000000
v 22.000000 46.000000 0.000000
v 33.000000 46.000000 0.000000
v 44.000000 46.000000 0.000000
v -44.000000 11.500000 0.000000
v -33.000000 11.500000 0.000000
v -22.000000 11.500000 0.000000
v -11.000000 11.500000 0.000000
v 0.000000 11.500000 0.000000
v 11.000000 11.500000 0.000000
v 22.000000 11.500000 0.000000
v 33.000000 11.500000 0.000000
v 44.000000 11.500000 0.000000
v -44.000000 23.000000 0.000000
v -33.000000 23.000000 0.000000
v -22.000000 23.000000 0.000000
v -11.000000 23.000000 0.000000
v 0.000000 23.000000 0.000000
v 11.000000 23.000000 0.000000
v 22.000000 23.000000 0.000000
v 33.000000 23.000000 0.000000
v 44.000000 23.000000 0.000000
v -44.000000 34.500000 0.000000
v -33.000000 34.500000 0.000000
v -22.000000 34.500000 0.000000
v -11.000000 34.500000 0.000000
v 0.000000 34.500000 0.000000
v 11.000000 34.500000 0.000000
v 22.000000 34.500000 0.000000
v 33.000000 34.500000 0.000000
v 44.000000 34.500000 0.000000
v 22.000000 46.000000 7.500000
v 11.000000 46.000000 7.500000
v 0.000000 46.000000 7.500000
v -11.000000 46.000000 7.500000
v -22.000000 46.000000 7.500000
v 22.000000 0.000000 7.500000
v 11.000000 0.000000 7.500000
v 0.000000 0.000000 7.500000
v -11.000000 0.000000 7.500000
v -22.000000 0.000000 7.500000
vt 0.000000 0.000000 0.000000
vt 9.297311 0.000000 0.000000
vt 0.000000 9.200000 0.000000
vt 9.297311 11.500000 0.000000
vt 0.000000 18.400000 0.000000
vt 9.297311 23.000000 0.000000
vt 0.000000 27.600000 0.000000
vt 9.297311 34.500000 0.000000
vt 0.000000 36.800000 0.000000
vt 9.297311 46.000000 0.000000
vt 0.000000 46.000000 0.000000
vt 18.594623 0.000000 0.000000
vt 18.594623 11.500000 0.000000
vt 18.594623 23.000000 0.000000
vt 18.594623 34.500000 0.000000
vt 18.594623 46.000000 0.000000
vt 27.891934 34.500000 0.000000
vt 27.891934 46.000000 0.000000
vt 37.189246 34.500000 0.000000
vt 37.189246 46.000000 0.000000
vt 46.486557 36.800000 0.000000
vt 46.486557 46.000000 0.000000
vt 27.891934 0.000000 0.000000
vt 27.891934 11.500000 0.000000
vt 27.891934 23.000000 0.000000
vt 37.189246 0.000000 0.000000
vt 37.189246 11.500000 0.000000
vt 37.189246 23.000000 0.000000
vt 46.486557 0.000000 0.000000
vt 46.486557 9.200000 0.000000
vt 46.486557 18.400000 0.000000
vt 46.486557 27.600000 0.000000
vt 0.000000 0.000000 0.000000
vt 11.000000 0.000000 0.000000
vt 0.000000 9.200000 0.000000
vt 11.000000 11.500000 0.000000
vt 0.000000 18.400000 0.000000
vt 11.000000 23.000000 0.000000
vt 0.000000 27.600000 0.000000
vt 11.000000 34.500000 0.000000
vt 0.000000 36.800000 0.000000
vt 11.000000 46.000000 0.000000
vt 0.000000 46.000000 0.000000
vt 22.000000 0.000000 0.000000
vt 22.000000 9.200000 0.000000
vt 22.000000 18.400000 0.000000
vt 22.000000 27.600000 0.000000
vt 22.000000 36.800000 0.000000
vt 22.000000 46.000000 0.000000
vt 0.000000 0.000000 0.000000
vt 9.297311 0.000000 0.000000
vt 0.000000 9.200000 0.000000
vt 9.297311 11.500000 0.000000
vt 0.000000 18.400000 0.000000
vt 9.297311 23.000000 0.000000
vt 0.000000 27.600000 0.000000
vt 9.297311 34.500000 0.000000
vt 0.000000 36.800000 0.000000
vt 9.297311 46.000000 0.000000
vt 0.000000 46.000000 0.000000
vt 18.594623 0.000000 0.000000
vt 18.594623 11.500000 0.000000
vt 18.594623 23.000000 0.000000
vt 18.594623 34.500000 0.000000
vt 18.594623 46.000000 0.000000
vt 27.891934 34.500000 0.000000
vt 27.891934 46.000000 0.000000
vt 37.189246 34.500000 0.000000
vt 37.189246 46.000000 0.000000
vt 46.486557 36.800000 0.000000
vt 46.486557 46.000000 0.000000
vt 27.891934 0.000000 0.000000
vt 27.891934 11.500000 0.000000
vt 27.891934 23.000000 0.000000
vt 37.189246 0.000000 0.000000
vt 37.189246 11.500000 0.000000
vt 37.189246 23.000000 0.000000
vt 46.486557 0.000000 0.000000
vt 46.486557 9.200000 0.000000
vt 46.486557 18.400000 0.000000
vt 46.486557 27.600000 0.000000
vt -0.000000 0.000000 0.000000
vt 11.000000 0.000000 0.000000
vt -0.000000 9.200000 0.000000
vt 11.000000 11.500000 0.000000
vt -0.000000 18.400000 0.000000
vt 11.000000 23.000000 0.000000
vt -0.000000 27.600000 0.000000
vt 11.000000 34.500000 0.000000
vt -0.000000 36.800000 0.000000
vt 11.000000 46.000000 0.000000
vt -0.000000 46.000000 0.000000
vt 22.000000 0.000000 0.000000
vt 22.000000 11.500000 0.000000
vt 22.000000 23.000000 0.000000
vt 22.000000 34.500000 0.000000
vt 22.000000 46.000000 0.000000
vt 33.000000 34.500000 0.000000
vt 33.000000 46.000000 0.000000
vt 44.000000 34.500000 0.000000
vt 44.000000 46.000000 0.000000
vt 55.000000 34.500000 0.000000
vt 55.000000 46.000000 0.000000
vt 66.000000 34.500000 0.000000
vt 66.000000 46.000000 0.000000
vt 77.000000 34.500000 0.000000
vt 77.000000 46.000000 0.000000
vt 88.000000 34.500000 0.000000
vt 88.000000 46.000000 0.000000
vt 99.000000 34.500000 0.000000
vt 99.000000 46.000000 0.000000
vt 110.000000 36.800000 0.000000
vt 110.000000 46.000000 0.000000
vt 33.000000 0.000000 0.000000
vt 33.000000 11.500000 0.000000
vt 33.000000 23.000000 0.000000
vt 44.000000 0.000000 0.000000
vt 44.000000 11.500000 0.000000
vt 44.000000 23.000000 0.000000
vt 55.000000 0.000000 0.000000
vt 55.000000 11.500000 0.000000
vt 55.000000 23.000000 0.000000
vt 66.000000 0.000000 0.000000
vt 66.000000 11.500000 0.000000
vt 66.000000 23.000000 0.000000
vt 77.000000 0.000000 0.000000
vt 77.000000 11.500000 0.000000
vt 77.000000 23.000000 0.000000
vt 88.000000 0.000000 0.000000
vt 88.000000 11.500000 0.000000
vt 88.000000 23.000000 0.000000
vt 99.000000 0.000000 0.000000
vt 99.000000 11.500000 0.000000
vt 99.000000 23.000000 0.000000
vt 110.000000 0.000000 0.000000
vt 110.000000 9.200000 0.000000
vt 110.000000 18.400000 0.000000
vt 110.000000 27.600000 0.000000
vt -7.500000 55.000000 0.000000
vt -7.500000 44.000000 0.000000
vt -4.500000 46.200000 0.000000
vt -1.500000 37.400000 0.000000
vt -7.500000 33.000000 0.000000
vt 1.500000 28.600000 0.000000
vt 0.000000 22.000000 0.000000
vt 4.500000 19.800000 0.000000
vt 0.000000 11.000000 0.000000
vt 7.500000 11.000000 0.000000
vt 7.500000 0.000000 0.000000
vt 0.000000 0.000000 0.000000
vt 7.500000 -11.000000 0.000000
vt 0.000000 -11.000000 0.000000
vt 4.500000 -19.800000 0.000000
vt 0.000000 -22.000000 0.000000
vt 1.500000 -28.600000 0.000000
vt -7.500000 -33.000000 0.000000
vt -1.500000 -37.400000 0.000000
vt -7.500000 -44.000000 0.000000
vt -4.500000 -46.200000 0.000000
vt -7.500000 -55.000000 0.000000
vt -7.500000 22.000000 0.000000
vt -7.500000 11.000000 0.000000
vt -7.500000 0.000000 0.000000
vt -7.500000 -11.000000 0.000000
vt -7.500000 -22.000000 0.000000
vt 55.000000 7.500000 0.000000
vt 44.000000 7.500000 0.000000
vt 46.200000 4.500000 0.000000
vt 37.400000 1.500000 0.000000
vt 33.000000 7.500000 0.000000
vt 28.600000 -1.500000 0.000000
vt 22.000000 0.000000 0.000000
vt 19.800000 -4.500000 0.000000
vt 11.000000 0.000000 0.000000
vt 11.000000 -7.500000 0.000000
vt 0.000000 0.000000 0.000000
vt -0.000000 -7.500000 0.000000
vt -11.000000 0.000000 0.000000
vt -11.000000 -7.500000 0.000000
vt -19.800000 -4.500000 0.000000
vt -22.000000 0.000000 0.000000
vt -28.600000 -1.500000 0.000000
vt -33.000000 7.500000 0.000000
vt -37.400000 1.500000 0.000000
vt -44.000000 7.500000 0.000000
vt -46.200000 4.500000 0.000000
vt -55.000000 7.500000 0.000000
vt 22.000000 7.500000 0.000000
vt 11.000000 7.500000 0.000000
vt -0.000000 7.500000 0.000000
vt -11.000000 7.500000 0.000000
vt -22.000000 7.500000 0.000000
vn 0.322674 -0.000000 0.946510
vn 0.322674 -0.000000 0.946510
vn 0.322674 -0.000000 0.946510
vn 0.322674 -0.000000 0.946510
vn 0.322674 -0.000000 0.946510
vn 0.322674 -0.000000 0.946510
vn 0.322674 -0.000000 0.946510
vn 0.322674 -0.000000 0.946510
vn 0.322674 -0.000000 0.946510
vn 0.322674 -0.000000 0.946510
vn 0.322674 -0.000000 0.946510
vn 0.322674 -0.000000 0.946510
vn 0.322674 -0.000000 0.946510
vn 0.322674 -0.000000 0.946510
vn 0.322674 -0.000000 0.946510
vn 0.322674 -0.000000 0.946510
vn 0.322674 -0.000000 0.946510
vn 0.322674 -0.000000 0.946510
vn 0.322674 -0.000000 0.946510
vn 0.322674 -0.000000 0.946510
vn 0.322674 -0.000000 0.946510
vn 0.322674 -0.000000 0.946510
vn 0.322674 -0.000000 0.946510
vn 0.322674 -0.000000 0.946510
vn 0.322674 -0.000000 0.946510
vn 0.322674 -0.000000 0.946510
vn 0.322674 -0.000000 0.946510
vn 0.322674 -0.000000 0.946510
vn 0.322674 -0.000000 0.946510
vn 0.322674 -0.000000 0.946510
vn 0.322674 -0.000000 0.946510
vn 0.322674 -0.000000 0.946510
vn 0.000000 0.000000 1.000000
vn 0.000000 0.000000 1.000000
vn 0.000000 0.000000 1.000000
vn 0.000000 0.000000 1.000000
vn 0.000000 0.000000 1.000000
vn 0.000000 0.000000 1.000000
vn 0.000000 0.000000 1.000000
vn 0.000000 0.000000 1.000000
vn 0.000000 0.000000 1.000000
vn 0.000000 0.000000 1.000000
vn 0.000000 0.000000 1.000000
vn 0.000000 0.000000 1.000000
vn 0.000000 0.000000 1.000000
vn 0.000000 0.000000 1.000000
vn 0.000000 0.000000 1.000000
vn 0.000000 0.000000 1.000000
vn 0.000000 0.000000 1.000000
vn -0.322674 0.000000 0.946510
vn -0.322674 0.000000 0.946510
vn -0.322674 0.000000 0.946510
vn -0.322674 0.000000 0.946510
vn -0.322674 0.000000 0.946510
vn -0.322674 0.000000 0.946510
vn -0.322674 0.000000 0.946510
vn -0.322674 0.000000 0.946510
vn -0.322674 0.000000 0.946510
vn -0.322674 0.000000 0.946510
vn -0.322674 0.000000 0.946510
vn -0.322674 0.000000 0.946510
vn -0.322674 0.000000 0.946510
vn -0.322674 0.000000 0.946510
vn -0.322674 0.000000 0.946510
vn -0.322674 0.000000 0.946510
vn -0.322674 0.000000 0.946510
vn -0.322674 0.000000 0.946510
vn -0.322674 0.000000 0.946510
vn -0.322674 0.000000 0.946510
vn -0.322674 0.000000 0.946510
vn -0.322674 0.000000 0.946510
vn -0.322674 0.000000 0.946510
vn -0.322674 0.000000 0.946510
vn -0.322674 0.000000 0.946510
vn -0.322674 0.000000 0.946510
vn -0.322674 0.000000 0.946510
vn -0.322674 0.000000 0.946510
vn -0.322674 0.000000 0.946510
vn -0.322674 0.000000 0.946510
vn -0.322674 0.000000 0.946510
vn -0.322674 0.000000 0.946510
vn 0.000000 0.000000 -1.000000
vn 0.000000 0.000000 -1.000000
vn 0.000000 0.000000 -1.000000
vn 0.000000 0.000000 -1.000000
vn 0.000000 0.000000 -1.000000
vn 0.000000 0.000000 -1.000000
vn 0.000000 0.000000 -1.000000
vn 0.000000 0.000000 -1.000000
vn 0.000000 0.000000 -1.000000
vn 0.000000 0.000000 -1.000000
vn 0.000000 0.000000 -1.000000
vn 0.000000 0.000000 -1.000000
vn 0.000000 0.000000 -1.000000
vn 0.000000 0.000000 -1.000000
vn 0.000000 0.000000 -1.000000
vn 0.000000 0.000000 -1.000000
vn 0.000000 0.000000 -1.000000
vn 0.000000 0.000000 -1.000000
vn 0.000000 0.000000 -1.000000
vn 0.000000 0.000000 -1.000000
vn 0.000000 0.000000 -1.000000
vn 0.000000 0.000000 -1.000000
vn 0.000000 0.000000 -1.000000
vn 0.000000 0.000000 -1.000000
vn 0.000000 0.000000 -1.000000
vn 0.000000 0.000000 -1.000000
vn 0.000000 0.000000 -1.000000
vn 0.000000 0.000000 -1.000000
vn 0.000000 0.000000 -1.000000
vn 0.000000 0.000000 -1.000000
vn 0.000000 0.000000 -1.000000
vn 0.000000 0.000000 -1.000000
vn 0.000000 0.000000 -1.000000
vn 0.000000 0.000000 -1.000000
vn 0.000000 0.000000 -1.000000
vn 0.000000 0.000000 -1.000000
vn 0.000000 0.000000 -1.000000
vn 0.000000 0.000000 -1.000000
vn 0.000000 0.000000 -1.000000
vn 0.000000 0.000000 -1.000000
vn 0.000000 0.000000 -1.000000
vn 0.000000 0.000000 -1.000000
vn 0.000000 0.000000 -1.000000
vn 0.000000 0.000000 -1.000000
vn 0.000000 0.000000 -1.000000
vn 0.000000 0.000000 -1.000000
vn 0.000000 0.000000 -1.000000
vn 0.000000 0.000000 -1.000000
vn 0.000000 0.000000 -1.000000
vn 0.000000 0.000000 -1.000000
vn 0.000000 0.000000 -1.000000
vn 0.000000 0.000000 -1.000000
vn 0.000000 0.000000 -1.000000
vn 0.000000 0.000000 -1.000000
vn 0.000000 0.000000 -1.000000
vn 0.000000 0.000000 -1.000000
vn 0.000000 0.000000 -1.000000
vn 0.000000 1.000000 0.000000
vn 0.000000 1.000000 0.000000
vn 0.000000 1.000000 0.000000
vn 0.000000 1.000000 0.000000
vn 0.000000 1.000000 0.000000
vn 0.000000 1.000000 0.000000
vn 0.000000 1.000000 0.000000
vn 0.000000 1.000000 0.000000
vn 0.000000 1.000000 0.000000
vn 0.000000 1.000000 0.000000
vn 0.000000 1.000000 0.000000
vn 0.000000 1.000000 0.000000
vn 0.000000 1.000000 0.000000
vn 0.000000 1.000000 0.000000
vn 0.000000 1.000000 0.000000
vn 0.000000 1.000000 0.000000
vn 0.000000 1.000000 0.000000
vn 0.000000 1.000000 0.000000
vn 0.000000 1.000000 0.000000
vn 0.000000 1.000000 0.000000
vn 0.000000 1.000000 0.000000
vn 0.000000 1.000000 0.000000
vn 0.000000 1.000000 0.000000
vn 0.000000 1.000000 0.000000
vn 0.000000 1.000000 0.000000
vn 0.000000 1.000000 0.000000
vn 0.000000 1.000000 0.000000
vn -0.000000 -1.000000 -0.000000
vn -0.000000 -1.000000 -0.000000
vn -0.000000 -1.000000 -0.000000
vn -0.000000 -1.000000 -0.000000
vn -0.000000 -1.000000 -0.000000
vn -0.000000 -1.000000 -0.000000
vn -0.000000 -1.000000 -0.000000
vn -0.000000 -1.000000 -0.000000
vn -0.000000 -1.000000 -0.000000
vn -0.000000 -1.000000 -0.000000
vn -0.000000 -1.000000 -0.000000
vn -0.000000 -1.000000 -0.000000
vn -0.000000 -1.000000 -0.000000
vn -0.000000 -1.000000 -0.000000
vn -0.000000 -1.000000 -0.000000
vn -0.000000 -1.000000 -0.000000
vn -0.000000 -1.000000 -0.000000
vn -0.000000 -1.000000 -0.000000
vn -0.000000 -1.000000 -0.000000
vn -0.000000 -1.000000 -0.000000
vn -0.000000 -1.000000 -0.000000
vn -0.000000 -1.000000 -0.000000
vn -0.000000 -1.000000 -0.000000
vn -0.000000 -1.000000 -0.000000
vn -0.000000 -1.000000 -0.000000
vn -0.000000 -1.000000 -0.000000
vn -0.000000 -1.000000 -0.000000
usemtl Steel_-_Satin
f 1/1/1 2/2/2 20/3/3
f 20/3/3 2/2/2 24/4/4
f 20/3/3 24/4/4 19/5/5
f 19/5/5 24/4/4 28/6/6
f 19/5/5 28/6/6 18/7/7
f 18/7/7 28/6/6 32/8/8
f 18/7/7 32/8/8 17/9/9
f 17/9/9 32/8/8 15/10/10
f 17/9/9 15/10/10 16/11/11
f 2/2/2 3/12/12 24/4/4
f 24/4/4 3/12/12 23/13/13
f 24/4/4 23/13/13 28/6/6
f 28/6/6 23/13/13 27/14/14
f 28/6/6 27/14/14 32/8/8
f 32/8/8 27/14/14 31/15/15
f 32/8/8 31/15/15 15/10/10
f 15/10/10 31/15/15 14/16/16
f 14/16/16 31/15/15 30/17/17
f 14/16/16 30/17/17 13/18/18
f 13/18/18 30/17/17 29/19/19
f 13/18/18 29/19/19 12/20/20
f 12/20/20 29/19/19 10/21/21
f 12/20/20 10/21/21 11/22/22
f 3/12/12 4/23/23 23/13/13
f 23/13/13 4/23/23 22/24/24
f 23/13/13 22/24/24 27/14/14
f 27/14/14 22/24/24 26/25/25
f 27/14/14 26/25/25 31/15/15
f 31/15/15 26/25/25 30/17/17
f 4/23/23 5/26/26 22/24/24
f 22/24/24 5/26/26 21/27/27
f 22/24/24 21/27/27 26/25/25
f 26/25/25 21/27/27 25/28/28
f 26/25/25 25/28/28 30/17/17
f 30/17/17 25/28/28 29/19/19
f 6/29/29 7/30/30 5/26/26
f 5/26/26 7/30/30 21/27/27
f 7/30/30 8/31/31 21/27/27
f 21/27/27 8/31/31 25/28/28
f 8/31/31 9/32/32 25/28/28
f 25/28/28 9/32/32 29/19/19
f 9/32/32 10/21/21 29/19/19
f 33/33/33 34/34/34 40/35/35
f 40/35/35 34/34/34 41/36/36
f 40/35/35 41/36/36 39/37/37
f 39/37/37 41/36/36 42/38/38
f 39/37/37 42/38/38 38/39/39
f 38/39/39 42/38/38 43/40/40
f 38/39/39 43/40/40 37/41/41
f 37/41/41 43/40/40 35/42/42
f 37/41/41 35/42/42 36/43/43
f 1/44/44 20/45/45 34/34/34
f 34/34/34 20/45/45 41/36/36
f 20/45/45 19/46/46 41/36/36
f 41/36/36 19/46/46 42/38/38
f 19/46/46 18/47/47 42/38/38
f 42/38/38 18/47/47 43/40/40
f 18/47/47 17/48/48 43/40/40
f 43/40/40 17/48/48 35/42/42
f 17/48/48 16/49/49 35/42/42
f 44/50/50 45/51/51 57/52/52
f 57/52/52 45/51/51 61/53/53
f 57/52/52 61/53/53 56/54/54
f 56/54/54 61/53/53 65/55/55
f 56/54/54 65/55/55 55/56/56
f 55/56/56 65/55/55 69/57/57
f 55/56/56 69/57/57 54/58/58
f 54/58/58 69/57/57 52/59/59
f 54/58/58 52/59/59 53/60/60
f 45/51/51 46/61/61 61/53/53
f 61/53/53 46/61/61 60/62/62
f 61/53/53 60/62/62 65/55/55
f 65/55/55 60/62/62 64/63/63
f 65/55/55 64/63/63 69/57/57
f 69/57/57 64/63/63 68/64/64
f 69/57/57 68/64/64 52/59/59
f 52/59/59 68/64/64 51/65/65
f 51/65/65 68/64/64 67/66/66
f 51/65/65 67/66/66 50/67/67
f 50/67/67 67/66/66 66/68/68
f 50/67/67 66/68/68 49/69/69
f 49/69/69 66/68/68 37/70/70
f 49/69/69 37/70/70 36/71/71
f 46/61/61 47/72/72 60/62/62
f 60/62/62 47/72/72 59/73/73
f 60/62/62 59/73/73 64/63/63
f 64/63/63 59/73/73 63/74/74
f 64/63/63 63/74/74 68/64/64
f 68/64/64 63/74/74 67/66/66
f 47/72/72 48/75/75 59/73/73
f 59/73/73 48/75/75 58/76/76
f 59/73/73 58/76/76 63/74/74
f 63/74/74 58/76/76 62/77/77
f 63/74/74 62/77/77 67/66/66
f 67/66/66 62/77/77 66/68/68
f 33/78/78 40/79/79 48/75/75
f 48/75/75 40/79/79 58/76/76
f 40/79/79 39/80/80 58/76/76
f 58/76/76 39/80/80 62/77/77
f 39/80/80 38/81/81 62/77/77
f 62/77/77 38/81/81 66/68/68
f 38/81/81 37/70/70 66/68/68
f 6/82/82 70/83/83 7/84/84
f 7/84/84 70/83/83 96/85/85
f 7/84/84 96/85/85 8/86/86
f 8/86/86 96/85/85 105/87/87
f 8/86/86 105/87/87 9/88/88
f 9/88/88 105/87/87 114/89/89
f 9/88/88 114/89/89 10/90/90
f 10/90/90 114/89/89 87/91/91
f 10/90/90 87/91/91 11/92/92
f 70/83/83 71/93/93 96/85/85
f 96/85/85 71/93/93 95/94/94
f 96/85/85 95/94/94 105/87/87
f 105/87/87 95/94/94 104/95/95
f 105/87/87 104/95/95 114/89/89
f 114/89/89 104/95/95 113/96/96
f 114/89/89 113/96/96 87/91/91
f 87/91/91 113/96/96 86/97/97
f 86/97/97 113/96/96 112/98/98
f 86/97/97 112/98/98 85/99/99
f 85/99/99 112/98/98 111/100/100
f 85/99/99 111/100/100 84/101/101
f 84/101/101 111/100/100 110/102/102
f 84/101/101 110/102/102 83/103/103
f 83/103/103 110/102/102 109/104/104
f 83/103/103 109/104/104 82/105/105
f 82/105/105 109/104/104 108/106/106
f 82/105/105 108/106/106 81/107/107
f 81/107/107 108/106/106 107/108/108
f 81/107/107 107/108/108 80/109/109
f 80/109/109 107/108/108 106/110/110
f 80/109/109 106/110/110 79/111/111
f 79/111/111 106/110/110 54/112/112
f 79/111/111 54/112/112 53/113/113
f 71/93/93 72/114/114 95/94/94
f 95/94/94 72/114/114 94/115/115
f 95/94/94 94/115/115 104/95/95
f 104/95/95 94/115/115 103/116/116
f 104/95/95 103/116/116 113/96/96
f 113/96/96 103/116/116 112/98/98
f 72/114/114 73/117/117 94/115/115
f 94/115/115 73/117/117 93/118/118
f 94/115/115 93/118/118 103/116/116
f 103/116/116 93/118/118 102/119/119
f 103/116/116 102/119/119 112/98/98
f 112/98/98 102/119/119 111/100/100
f 73/117/117 74/120/120 93/118/118
f 93/118/118 74/120/120 92/121/121
f 93/118/118 92/121/121 102/119/119
f 102/119/119 92/121/121 101/122/122
f 102/119/119 101/122/122 111/100/100
f 111/100/100 101/122/122 110/102/102
f 74/120/120 75/123/123 92/121/121
f 92/121/121 75/123/123 91/124/124
f 92/121/121 91/124/124 101/122/122
f 101/122/122 91/124/124 100/125/125
f 101/122/122 100/125/125 110/102/102
f 110/102/102 100/125/125 109/104/104
f 75/123/123 76/126/126 91/124/124
f 91/124/124 76/126/126 90/127/127
f 91/124/124 90/127/127 100/125/125
f 100/125/125 90/127/127 99/128/128
f 100/125/125 99/128/128 109/104/104
f 109/104/104 99/128/128 108/106/106
f 76/126/126 77/129/129 90/127/127
f 90/127/127 77/129/129 89/130/130
f 90/127/127 89/130/130 99/128/128
f 99/128/128 89/130/130 98/131/131
f 99/128/128 98/131/131 108/106/106
f 108/106/106 98/131/131 107/108/108
f 77/129/129 78/132/132 89/130/130
f 89/130/130 78/132/132 88/133/133
f 89/130/130 88/133/133 98/131/131
f 98/131/131 88/133/133 97/134/134
f 98/131/131 97/134/134 107/108/108
f 107/108/108 97/134/134 106/110/110
f 44/135/135 57/136/136 78/132/132
f 78/132/132 57/136/136 88/133/133
f 57/136/136 56/137/137 88/133/133
f 88/133/133 56/137/137 97/134/134
f 56/137/137 55/138/138 97/134/134
f 97/134/134 55/138/138 106/110/110
f 55/138/138 54/112/112 106/110/110
f 11/139/139 87/140/140 12/141/141
f 12/141/141 87/140/140 13/142/142
f 13/142/142 87/140/140 86/143/143
f 13/142/142 86/143/143 14/144/144
f 14/144/144 86/143/143 115/145/145
f 14/144/144 115/145/145 15/146/146
f 15/146/146 115/145/145 116/147/147
f 15/146/146 116/147/147 16/148/148
f 16/148/148 116/147/147 35/149/149
f 35/149/149 116/147/147 117/150/150
f 35/149/149 117/150/150 36/151/151
f 36/151/151 117/150/150 118/152/152
f 36/151/151 118/152/152 49/153/153
f 49/153/153 118/152/152 119/154/154
f 49/153/153 119/154/154 50/155/155
f 50/155/155 119/154/154 80/156/156
f 50/155/155 80/156/156 51/157/157
f 51/157/157 80/156/156 79/158/158
f 51/157/157 79/158/158 52/159/159
f 52/159/159 79/158/158 53/160/160
f 86/143/143 85/161/161 115/145/145
f 115/145/145 85/161/161 116/147/147
f 85/161/161 84/162/162 116/147/147
f 116/147/147 84/162/162 117/150/150
f 84/162/162 83/163/163 117/150/150
f 117/150/150 83/163/163 118/152/152
f 83/163/163 82/164/164 118/152/152
f 118/152/152 82/164/164 119/154/154
f 82/164/164 81/165/165 119/154/154
f 119/154/154 81/165/165 80/156/156
f 44/166/166 78/167/167 45/168/168
f 45/168/168 78/167/167 46/169/169
f 46/169/169 78/167/167 77/170/170
f 46/169/169 77/170/170 47/171/171
f 47/171/171 77/170/170 124/172/172
f 47/171/171 124/172/172 48/173/173
f 48/173/173 124/172/172 123/174/174
f 48/173/173 123/174/174 33/175/175
f 33/175/175 123/174/174 122/176/176
f 33/175/175 122/176/176 34/177/177
f 34/177/177 122/176/176 121/178/178
f 34/177/177 121/178/178 1/179/179
f 1/179/179 121/178/178 2/180/180
f 2/180/180 121/178/178 120/181/181
f 2/180/180 120/181/181 3/182/182
f 3/182/182 120/181/181 71/183/183
f 3/182/182 71/183/183 4/184/184
f 4/184/184 71/183/183 70/185/185
f 4/184/184 70/185/185 5/186/186
f 5/186/186 70/185/185 6/187/187
f 77/170/170 76/188/188 124/172/172
f 124/172/172 76/188/188 75/189/189
f 124/172/172 75/189/189 123/174/174
f 123/174/174 75/189/189 74/190/190
f 123/174/174 74/190/190 122/176/176
f 122/176/176 74/190/190 73/191/191
f 122/176/176 73/191/191 121/178/178
f 121/178/178 73/191/191 72/192/192
f 121/178/178 72/192/192 120/181/181
f 120/181/181 72/192/192 71/183/183
# 124 vertices
# 192 texture params
# 192 normals
# 244 facets

# 1 groups
