# WaveFront *.obj file (generated by Autodesk ATF)

mtllib TUNNEl.mtl

g Body2

v 0.000000 5.000000 50.000000
v 0.000000 15.400000 50.000000
v 0.000000 25.800000 50.000000
v 0.000000 36.200000 50.000000
v 0.000000 46.600000 50.000000
v 0.000000 57.000000 50.000000
v 10.833333 57.000000 50.000000
v 21.666667 57.000000 50.000000
v 32.500000 57.000000 50.000000
v 43.333333 57.000000 50.000000
v 54.166667 57.000000 50.000000
v 65.000000 57.000000 50.000000
v 75.833333 57.000000 50.000000
v 86.666667 57.000000 50.000000
v 97.500000 57.000000 50.000000
v 108.333333 57.000000 50.000000
v 119.166667 57.000000 50.000000
v 130.000000 57.000000 50.000000
v 130.000000 46.600000 50.000000
v 130.000000 36.200000 50.000000
v 130.000000 25.800000 50.000000
v 130.000000 15.400000 50.000000
v 130.000000 5.000000 50.000000
v 119.166667 5.000000 50.000000
v 108.333333 5.000000 50.000000
v 97.500000 5.000000 50.000000
v 86.666667 5.000000 50.000000
v 75.833333 5.000000 50.000000
v 65.000000 5.000000 50.000000
v 54.166667 5.000000 50.000000
v 43.333333 5.000000 50.000000
v 32.500000 5.000000 50.000000
v 21.666667 5.000000 50.000000
v 10.833333 5.000000 50.000000
v 10.833333 46.600000 50.000000
v 10.833333 36.200000 50.000000
v 10.833333 25.800000 50.000000
v 10.833333 15.400000 50.000000
v 21.666667 46.600000 50.000000
v 21.666667 36.200000 50.000000
v 21.666667 25.800000 50.000000
v 21.666667 15.400000 50.000000
v 32.500000 46.600000 50.000000
v 32.500000 36.200000 50.000000
v 32.500000 25.800000 50.000000
v 32.500000 15.400000 50.000000
v 43.333333 46.600000 50.000000
v 43.333333 36.200000 50.000000
v 43.333333 25.800000 50.000000
v 43.333333 15.400000 50.000000
v 54.166667 46.600000 50.000000
v 54.166667 36.200000 50.000000
v 54.166667 25.800000 50.000000
v 54.166667 15.400000 50.000000
v 65.000000 46.600000 50.000000
v 65.000000 36.200000 50.000000
v 65.000000 25.800000 50.000000
v 65.000000 15.400000 50.000000
v 75.833333 46.600000 50.000000
v 75.833333 36.200000 50.000000
v 75.833333 25.800000 50.000000
v 75.833333 15.400000 50.000000
v 86.666667 46.600000 50.000000
v 86.666667 36.200000 50.000000
v 86.666667 25.800000 50.000000
v 86.666667 15.400000 50.000000
v 97.500000 46.600000 50.000000
v 97.500000 36.200000 50.000000
v 97.500000 25.800000 50.000000
v 97.500000 15.400000 50.000000
v 108.333333 46.600000 50.000000
v 108.333333 36.200000 50.000000
v 108.333333 25.800000 50.000000
v 108.333333 15.400000 50.000000
v 119.166667 46.600000 50.000000
v 119.166667 36.200000 50.000000
v 119.166667 25.800000 50.000000
v 119.166667 15.400000 50.000000
v 0.000000 5.000000 0.000000
v 0.000000 5.000000 10.000000
v 0.000000 5.000000 20.000000
v 0.000000 5.000000 30.000000
v 0.000000 5.000000 40.000000
v 130.000000 5.000000 40.000000
v 130.000000 5.000000 30.000000
v 130.000000 5.000000 20.000000
v 130.000000 5.000000 10.000000
v 130.000000 5.000000 0.000000
v 119.166667 5.000000 0.000000
v 108.333333 5.000000 0.000000
v 97.500000 5.000000 0.000000
v 86.666667 5.000000 0.000000
v 75.833333 5.000000 0.000000
v 65.000000 5.000000 0.000000
v 54.166667 5.000000 0.000000
v 43.333333 5.000000 0.000000
v 32.500000 5.000000 0.000000
v 21.666667 5.000000 0.000000
v 10.833333 5.000000 0.000000
v 10.833333 5.000000 40.000000
v 10.833333 5.000000 30.000000
v 10.833333 5.000000 20.000000
v 10.833333 5.000000 10.000000
v 21.666667 5.000000 40.000000
v 21.666667 5.000000 30.000000
v 21.666667 5.000000 20.000000
v 21.666667 5.000000 10.000000
v 32.500000 5.000000 40.000000
v 32.500000 5.000000 30.000000
v 32.500000 5.000000 20.000000
v 32.500000 5.000000 10.000000
v 43.333333 5.000000 40.000000
v 43.333333 5.000000 30.000000
v 43.333333 5.000000 20.000000
v 43.333333 5.000000 10.000000
v 54.166667 5.000000 40.000000
v 54.166667 5.000000 30.000000
v 54.166667 5.000000 20.000000
v 54.166667 5.000000 10.000000
v 65.000000 5.000000 40.000000
v 65.000000 5.000000 30.000000
v 65.000000 5.000000 20.000000
v 65.000000 5.000000 10.000000
v 75.833333 5.000000 40.000000
v 75.833333 5.000000 30.000000
v 75.833333 5.000000 20.000000
v 75.833333 5.000000 10.000000
v 86.666667 5.000000 40.000000
v 86.666667 5.000000 30.000000
v 86.666667 5.000000 20.000000
v 86.666667 5.000000 10.000000
v 97.500000 5.000000 40.000000
v 97.500000 5.000000 30.000000
v 97.500000 5.000000 20.000000
v 97.500000 5.000000 10.000000
v 108.333333 5.000000 40.000000
v 108.333333 5.000000 30.000000
v 108.333333 5.000000 20.000000
v 108.333333 5.000000 10.000000
v 119.166667 5.000000 40.000000
v 119.166667 5.000000 30.000000
v 119.166667 5.000000 20.000000
v 119.166667 5.000000 10.000000
v 0.000000 0.000000 0.000000
v 130.000000 0.000000 0.000000
v 119.166667 0.000000 0.000000
v 108.333333 0.000000 0.000000
v 97.500000 0.000000 0.000000
v 86.666667 0.000000 0.000000
v 75.833333 0.000000 0.000000
v 65.000000 0.000000 0.000000
v 54.166667 0.000000 0.000000
v 43.333333 0.000000 0.000000
v 32.500000 0.000000 0.000000
v 21.666667 0.000000 0.000000
v 10.833333 0.000000 0.000000
v 0.000000 0.000000 60.000000
v 0.000000 0.000000 50.000000
v 0.000000 0.000000 40.000000
v 0.000000 0.000000 30.000000
v 0.000000 0.000000 20.000000
v 0.000000 0.000000 10.000000
v 130.000000 0.000000 10.000000
v 130.000000 0.000000 20.000000
v 130.000000 0.000000 30.000000
v 130.000000 0.000000 40.000000
v 130.000000 0.000000 50.000000
v 130.000000 0.000000 60.000000
v 119.166667 0.000000 60.000000
v 108.333333 0.000000 60.000000
v 97.500000 0.000000 60.000000
v 86.666667 0.000000 60.000000
v 75.833333 0.000000 60.000000
v 65.000000 0.000000 60.000000
v 54.166667 0.000000 60.000000
v 43.333333 0.000000 60.000000
v 32.500000 0.000000 60.000000
v 21.666667 0.000000 60.000000
v 10.833333 0.000000 60.000000
v 10.833333 0.000000 10.000000
v 10.833333 0.000000 20.000000
v 10.833333 0.000000 30.000000
v 10.833333 0.000000 40.000000
v 10.833333 0.000000 50.000000
v 21.666667 0.000000 10.000000
v 21.666667 0.000000 20.000000
v 21.666667 0.000000 30.000000
v 21.666667 0.000000 40.000000
v 21.666667 0.000000 50.000000
v 32.500000 0.000000 10.000000
v 32.500000 0.000000 20.000000
v 32.500000 0.000000 30.000000
v 32.500000 0.000000 40.000000
v 32.500000 0.000000 50.000000
v 43.333333 0.000000 10.000000
v 43.333333 0.000000 20.000000
v 43.333333 0.000000 30.000000
v 43.333333 0.000000 40.000000
v 43.333333 0.000000 50.000000
v 54.166667 0.000000 10.000000
v 54.166667 0.000000 20.000000
v 54.166667 0.000000 30.000000
v 54.166667 0.000000 40.000000
v 54.166667 0.000000 50.000000
v 65.000000 0.000000 10.000000
v 65.000000 0.000000 20.000000
v 65.000000 0.000000 30.000000
v 65.000000 0.000000 40.000000
v 65.000000 0.000000 50.000000
v 75.833333 0.000000 10.000000
v 75.833333 0.000000 20.000000
v 75.833333 0.000000 30.000000
v 75.833333 0.000000 40.000000
v 75.833333 0.000000 50.000000
v 86.666667 0.000000 10.000000
v 86.666667 0.000000 20.000000
v 86.666667 0.000000 30.000000
v 86.666667 0.000000 40.000000
v 86.666667 0.000000 50.000000
v 97.500000 0.000000 10.000000
v 97.500000 0.000000 20.000000
v 97.500000 0.000000 30.000000
v 97.500000 0.000000 40.000000
v 97.500000 0.000000 50.000000
v 108.333333 0.000000 10.000000
v 108.333333 0.000000 20.000000
v 108.333333 0.000000 30.000000
v 108.333333 0.000000 40.000000
v 108.333333 0.000000 50.000000
v 119.166667 0.000000 10.000000
v 119.166667 0.000000 20.000000
v 119.166667 0.000000 30.000000
v 119.166667 0.000000 40.000000
v 119.166667 0.000000 50.000000
v 0.000000 62.000000 60.000000
v 0.000000 51.666667 60.000000
v 0.000000 41.333333 60.000000
v 0.000000 31.000000 60.000000
v 0.000000 20.666667 60.000000
v 0.000000 10.333333 60.000000
v 130.000000 10.333333 60.000000
v 130.000000 20.666667 60.000000
v 130.000000 31.000000 60.000000
v 130.000000 41.333333 60.000000
v 130.000000 51.666667 60.000000
v 130.000000 62.000000 60.000000
v 119.166667 62.000000 60.000000
v 108.333333 62.000000 60.000000
v 97.500000 62.000000 60.000000
v 86.666667 62.000000 60.000000
v 75.833333 62.000000 60.000000
v 65.000000 62.000000 60.000000
v 54.166667 62.000000 60.000000
v 43.333333 62.000000 60.000000
v 32.500000 62.000000 60.000000
v 21.666667 62.000000 60.000000
v 10.833333 62.000000 60.000000
v 10.833333 10.333333 60.000000
v 10.833333 20.666667 60.000000
v 10.833333 31.000000 60.000000
v 10.833333 41.333333 60.000000
v 10.833333 51.666667 60.000000
v 21.666667 10.333333 60.000000
v 21.666667 20.666667 60.000000
v 21.666667 31.000000 60.000000
v 21.666667 41.333333 60.000000
v 21.666667 51.666667 60.000000
v 32.500000 10.333333 60.000000
v 32.500000 20.666667 60.000000
v 32.500000 31.000000 60.000000
v 32.500000 41.333333 60.000000
v 32.500000 51.666667 60.000000
v 43.333333 10.333333 60.000000
v 43.333333 20.666667 60.000000
v 43.333333 31.000000 60.000000
v 43.333333 41.333333 60.000000
v 43.333333 51.666667 60.000000
v 54.166667 10.333333 60.000000
v 54.166667 20.666667 60.000000
v 54.166667 31.000000 60.000000
v 54.166667 41.333333 60.000000
v 54.166667 51.666667 60.000000
v 65.000000 10.333333 60.000000
v 65.000000 20.666667 60.000000
v 65.000000 31.000000 60.000000
v 65.000000 41.333333 60.000000
v 65.000000 51.666667 60.000000
v 75.833333 10.333333 60.000000
v 75.833333 20.666667 60.000000
v 75.833333 31.000000 60.000000
v 75.833333 41.333333 60.000000
v 75.833333 51.666667 60.000000
v 86.666667 10.333333 60.000000
v 86.666667 20.666667 60.000000
v 86.666667 31.000000 60.000000
v 86.666667 41.333333 60.000000
v 86.666667 51.666667 60.000000
v 97.500000 10.333333 60.000000
v 97.500000 20.666667 60.000000
v 97.500000 31.000000 60.000000
v 97.500000 41.333333 60.000000
v 97.500000 51.666667 60.000000
v 108.333333 10.333333 60.000000
v 108.333333 20.666667 60.000000
v 108.333333 31.000000 60.000000
v 108.333333 41.333333 60.000000
v 108.333333 51.666667 60.000000
v 119.166667 10.333333 60.000000
v 119.166667 20.666667 60.000000
v 119.166667 31.000000 60.000000
v 119.166667 41.333333 60.000000
v 119.166667 51.666667 60.000000
v 0.000000 62.000000 0.000000
v 0.000000 62.000000 10.000000
v 0.000000 62.000000 20.000000
v 0.000000 62.000000 30.000000
v 0.000000 62.000000 40.000000
v 0.000000 62.000000 50.000000
v 130.000000 62.000000 50.000000
v 130.000000 62.000000 40.000000
v 130.000000 62.000000 30.000000
v 130.000000 62.000000 20.000000
v 130.000000 62.000000 10.000000
v 130.000000 62.000000 0.000000
v 119.166667 62.000000 0.000000
v 108.333333 62.000000 0.000000
v 97.500000 62.000000 0.000000
v 86.666667 62.000000 0.000000
v 75.833333 62.000000 0.000000
v 65.000000 62.000000 0.000000
v 54.166667 62.000000 0.000000
v 43.333333 62.000000 0.000000
v 32.500000 62.000000 0.000000
v 21.666667 62.000000 0.000000
v 10.833333 62.000000 0.000000
v 10.833333 62.000000 50.000000
v 10.833333 62.000000 40.000000
v 10.833333 62.000000 30.000000
v 10.833333 62.000000 20.000000
v 10.833333 62.000000 10.000000
v 21.666667 62.000000 50.000000
v 21.666667 62.000000 40.000000
v 21.666667 62.000000 30.000000
v 21.666667 62.000000 20.000000
v 21.666667 62.000000 10.000000
v 32.500000 62.000000 50.000000
v 32.500000 62.000000 40.000000
v 32.500000 62.000000 30.000000
v 32.500000 62.000000 20.000000
v 32.500000 62.000000 10.000000
v 43.333333 62.000000 50.000000
v 43.333333 62.000000 40.000000
v 43.333333 62.000000 30.000000
v 43.333333 62.000000 20.000000
v 43.333333 62.000000 10.000000
v 54.166667 62.000000 50.000000
v 54.166667 62.000000 40.000000
v 54.166667 62.000000 30.000000
v 54.166667 62.000000 20.000000
v 54.166667 62.000000 10.000000
v 65.000000 62.000000 50.000000
v 65.000000 62.000000 40.000000
v 65.000000 62.000000 30.000000
v 65.000000 62.000000 20.000000
v 65.000000 62.000000 10.000000
v 75.833333 62.000000 50.000000
v 75.833333 62.000000 40.000000
v 75.833333 62.000000 30.000000
v 75.833333 62.000000 20.000000
v 75.833333 62.000000 10.000000
v 86.666667 62.000000 50.000000
v 86.666667 62.000000 40.000000
v 86.666667 62.000000 30.000000
v 86.666667 62.000000 20.000000
v 86.666667 62.000000 10.000000
v 97.500000 62.000000 50.000000
v 97.500000 62.000000 40.000000
v 97.500000 62.000000 30.000000
v 97.500000 62.000000 20.000000
v 97.500000 62.000000 10.000000
v 108.333333 62.000000 50.000000
v 108.333333 62.000000 40.000000
v 108.333333 62.000000 30.000000
v 108.333333 62.000000 20.000000
v 108.333333 62.000000 10.000000
v 119.166667 62.000000 50.000000
v 119.166667 62.000000 40.000000
v 119.166667 62.000000 30.000000
v 119.166667 62.000000 20.000000
v 119.166667 62.000000 10.000000
v 0.000000 57.000000 0.000000
v 130.000000 57.000000 0.000000
v 119.166667 57.000000 0.000000
v 108.333333 57.000000 0.000000
v 97.500000 57.000000 0.000000
v 86.666667 57.000000 0.000000
v 75.833333 57.000000 0.000000
v 65.000000 57.000000 0.000000
v 54.166667 57.000000 0.000000
v 43.333333 57.000000 0.000000
v 32.500000 57.000000 0.000000
v 21.666667 57.000000 0.000000
v 10.833333 57.000000 0.000000
v 0.000000 57.000000 40.000000
v 0.000000 57.000000 30.000000
v 0.000000 57.000000 20.000000
v 0.000000 57.000000 10.000000
v 130.000000 57.000000 10.000000
v 130.000000 57.000000 20.000000
v 130.000000 57.000000 30.000000
v 130.000000 57.000000 40.000000
v 10.833333 57.000000 10.000000
v 10.833333 57.000000 20.000000
v 10.833333 57.000000 30.000000
v 10.833333 57.000000 40.000000
v 21.666667 57.000000 10.000000
v 21.666667 57.000000 20.000000
v 21.666667 57.000000 30.000000
v 21.666667 57.000000 40.000000
v 32.500000 57.000000 10.000000
v 32.500000 57.000000 20.000000
v 32.500000 57.000000 30.000000
v 32.500000 57.000000 40.000000
v 43.333333 57.000000 10.000000
v 43.333333 57.000000 20.000000
v 43.333333 57.000000 30.000000
v 43.333333 57.000000 40.000000
v 54.166667 57.000000 10.000000
v 54.166667 57.000000 20.000000
v 54.166667 57.000000 30.000000
v 54.166667 57.000000 40.000000
v 65.000000 57.000000 10.000000
v 65.000000 57.000000 20.000000
v 65.000000 57.000000 30.000000
v 65.000000 57.000000 40.000000
v 75.833333 57.000000 10.000000
v 75.833333 57.000000 20.000000
v 75.833333 57.000000 30.000000
v 75.833333 57.000000 40.000000
v 86.666667 57.000000 10.000000
v 86.666667 57.000000 20.000000
v 86.666667 57.000000 30.000000
v 86.666667 57.000000 40.000000
v 97.500000 57.000000 10.000000
v 97.500000 57.000000 20.000000
v 97.500000 57.000000 30.000000
v 97.500000 57.000000 40.000000
v 108.333333 57.000000 10.000000
v 108.333333 57.000000 20.000000
v 108.333333 57.000000 30.000000
v 108.333333 57.000000 40.000000
v 119.166667 57.000000 10.000000
v 119.166667 57.000000 20.000000
v 119.166667 57.000000 30.000000
v 119.166667 57.000000 40.000000
vt 0.000000 0.000000 0.000000
vt 10.400000 0.000000 0.000000
vt 0.000000 10.833333 0.000000
vt 10.400000 10.833333 0.000000
vt 0.000000 21.666667 0.000000
vt 10.400000 21.666667 0.000000
vt 0.000000 32.500000 0.000000
vt 10.400000 32.500000 0.000000
vt 0.000000 43.333333 0.000000
vt 10.400000 43.333333 0.000000
vt 0.000000 54.166667 0.000000
vt 10.400000 54.166667 0.000000
vt 0.000000 65.000000 0.000000
vt 10.400000 65.000000 0.000000
vt 0.000000 75.833333 0.000000
vt 10.400000 75.833333 0.000000
vt 0.000000 86.666667 0.000000
vt 10.400000 86.666667 0.000000
vt 0.000000 97.500000 0.000000
vt 10.400000 97.500000 0.000000
vt 0.000000 108.333333 0.000000
vt 10.400000 108.333333 0.000000
vt 0.000000 119.166667 0.000000
vt 10.400000 119.166667 0.000000
vt 0.000000 130.000000 0.000000
vt 10.400000 130.000000 0.000000
vt 20.800000 119.166667 0.000000
vt 20.800000 130.000000 0.000000
vt 31.200000 119.166667 0.000000
vt 31.200000 130.000000 0.000000
vt 41.600000 119.166667 0.000000
vt 41.600000 130.000000 0.000000
vt 52.000000 119.166667 0.000000
vt 52.000000 130.000000 0.000000
vt 20.800000 0.000000 0.000000
vt 20.800000 10.833333 0.000000
vt 20.800000 21.666667 0.000000
vt 20.800000 32.500000 0.000000
vt 20.800000 43.333333 0.000000
vt 20.800000 54.166667 0.000000
vt 20.800000 65.000000 0.000000
vt 20.800000 75.833333 0.000000
vt 20.800000 86.666667 0.000000
vt 20.800000 97.500000 0.000000
vt 20.800000 108.333333 0.000000
vt 31.200000 0.000000 0.000000
vt 31.200000 10.833333 0.000000
vt 31.200000 21.666667 0.000000
vt 31.200000 32.500000 0.000000
vt 31.200000 43.333333 0.000000
vt 31.200000 54.166667 0.000000
vt 31.200000 65.000000 0.000000
vt 31.200000 75.833333 0.000000
vt 31.200000 86.666667 0.000000
vt 31.200000 97.500000 0.000000
vt 31.200000 108.333333 0.000000
vt 41.600000 0.000000 0.000000
vt 41.600000 10.833333 0.000000
vt 41.600000 21.666667 0.000000
vt 41.600000 32.500000 0.000000
vt 41.600000 43.333333 0.000000
vt 41.600000 54.166667 0.000000
vt 41.600000 65.000000 0.000000
vt 41.600000 75.833333 0.000000
vt 41.600000 86.666667 0.000000
vt 41.600000 97.500000 0.000000
vt 41.600000 108.333333 0.000000
vt 52.000000 0.000000 0.000000
vt 52.000000 10.833333 0.000000
vt 52.000000 21.666667 0.000000
vt 52.000000 32.500000 0.000000
vt 52.000000 43.333333 0.000000
vt 52.000000 54.166667 0.000000
vt 52.000000 65.000000 0.000000
vt 52.000000 75.833333 0.000000
vt 52.000000 86.666667 0.000000
vt 52.000000 97.500000 0.000000
vt 52.000000 108.333333 0.000000
vt 0.000000 0.000000 0.000000
vt 10.000000 0.000000 0.000000
vt 0.000000 10.833333 0.000000
vt 10.000000 10.833333 0.000000
vt 0.000000 21.666667 0.000000
vt 10.000000 21.666667 0.000000
vt 0.000000 32.500000 0.000000
vt 10.000000 32.500000 0.000000
vt 0.000000 43.333333 0.000000
vt 10.000000 43.333333 0.000000
vt 0.000000 54.166667 0.000000
vt 10.000000 54.166667 0.000000
vt 0.000000 65.000000 0.000000
vt 10.000000 65.000000 0.000000
vt 0.000000 75.833333 0.000000
vt 10.000000 75.833333 0.000000
vt 0.000000 86.666667 0.000000
vt 10.000000 86.666667 0.000000
vt 0.000000 97.500000 0.000000
vt 10.000000 97.500000 0.000000
vt 0.000000 108.333333 0.000000
vt 10.000000 108.333333 0.000000
vt 0.000000 119.166667 0.000000
vt 10.000000 119.166667 0.000000
vt 0.000000 130.000000 0.000000
vt 10.000000 130.000000 0.000000
vt 20.000000 119.166667 0.000000
vt 20.000000 130.000000 0.000000
vt 30.000000 119.166667 0.000000
vt 30.000000 130.000000 0.000000
vt 40.000000 119.166667 0.000000
vt 40.000000 130.000000 0.000000
vt 50.000000 119.166667 0.000000
vt 50.000000 130.000000 0.000000
vt 20.000000 0.000000 0.000000
vt 20.000000 10.833333 0.000000
vt 20.000000 21.666667 0.000000
vt 20.000000 32.500000 0.000000
vt 20.000000 43.333333 0.000000
vt 20.000000 54.166667 0.000000
vt 20.000000 65.000000 0.000000
vt 20.000000 75.833333 0.000000
vt 20.000000 86.666667 0.000000
vt 20.000000 97.500000 0.000000
vt 20.000000 108.333333 0.000000
vt 30.000000 0.000000 0.000000
vt 30.000000 10.833333 0.000000
vt 30.000000 21.666667 0.000000
vt 30.000000 32.500000 0.000000
vt 30.000000 43.333333 0.000000
vt 30.000000 54.166667 0.000000
vt 30.000000 65.000000 0.000000
vt 30.000000 75.833333 0.000000
vt 30.000000 86.666667 0.000000
vt 30.000000 97.500000 0.000000
vt 30.000000 108.333333 0.000000
vt 40.000000 0.000000 0.000000
vt 40.000000 10.833333 0.000000
vt 40.000000 21.666667 0.000000
vt 40.000000 32.500000 0.000000
vt 40.000000 43.333333 0.000000
vt 40.000000 54.166667 0.000000
vt 40.000000 65.000000 0.000000
vt 40.000000 75.833333 0.000000
vt 40.000000 86.666667 0.000000
vt 40.000000 97.500000 0.000000
vt 40.000000 108.333333 0.000000
vt 50.000000 0.000000 0.000000
vt 50.000000 10.833333 0.000000
vt 50.000000 21.666667 0.000000
vt 50.000000 32.500000 0.000000
vt 50.000000 43.333333 0.000000
vt 50.000000 54.166667 0.000000
vt 50.000000 65.000000 0.000000
vt 50.000000 75.833333 0.000000
vt 50.000000 86.666667 0.000000
vt 50.000000 97.500000 0.000000
vt 50.000000 108.333333 0.000000
vt 0.000000 0.000000 0.000000
vt 5.000000 0.000000 0.000000
vt 0.000000 10.833333 0.000000
vt 5.000000 10.833333 0.000000
vt 0.000000 21.666667 0.000000
vt 5.000000 21.666667 0.000000
vt 0.000000 32.500000 0.000000
vt 5.000000 32.500000 0.000000
vt 0.000000 43.333333 0.000000
vt 5.000000 43.333333 0.000000
vt 0.000000 54.166667 0.000000
vt 5.000000 54.166667 0.000000
vt 0.000000 65.000000 0.000000
vt 5.000000 65.000000 0.000000
vt 0.000000 75.833333 0.000000
vt 5.000000 75.833333 0.000000
vt 0.000000 86.666667 0.000000
vt 5.000000 86.666667 0.000000
vt 0.000000 97.500000 0.000000
vt 5.000000 97.500000 0.000000
vt 0.000000 108.333333 0.000000
vt 5.000000 108.333333 0.000000
vt 0.000000 119.166667 0.000000
vt 5.000000 119.166667 0.000000
vt 0.000000 130.000000 0.000000
vt 5.000000 130.000000 0.000000
vt -0.000000 0.000000 0.000000
vt 10.000000 0.000000 0.000000
vt -0.000000 10.833333 0.000000
vt 10.000000 10.833333 0.000000
vt -0.000000 21.666667 0.000000
vt 10.000000 21.666667 0.000000
vt -0.000000 32.500000 0.000000
vt 10.000000 32.500000 0.000000
vt -0.000000 43.333333 0.000000
vt 10.000000 43.333333 0.000000
vt -0.000000 54.166667 0.000000
vt 10.000000 54.166667 0.000000
vt -0.000000 65.000000 0.000000
vt 10.000000 65.000000 0.000000
vt -0.000000 75.833333 0.000000
vt 10.000000 75.833333 0.000000
vt -0.000000 86.666667 0.000000
vt 10.000000 86.666667 0.000000
vt -0.000000 97.500000 0.000000
vt 10.000000 97.500000 0.000000
vt -0.000000 108.333333 0.000000
vt 10.000000 108.333333 0.000000
vt -0.000000 119.166667 0.000000
vt 10.000000 119.166667 0.000000
vt -0.000000 130.000000 0.000000
vt 10.000000 130.000000 0.000000
vt 20.000000 119.166667 0.000000
vt 20.000000 130.000000 0.000000
vt 30.000000 119.166667 0.000000
vt 30.000000 130.000000 0.000000
vt 40.000000 119.166667 0.000000
vt 40.000000 130.000000 0.000000
vt 50.000000 119.166667 0.000000
vt 50.000000 130.000000 0.000000
vt 60.000000 119.166667 0.000000
vt 60.000000 130.000000 0.000000
vt 20.000000 0.000000 0.000000
vt 20.000000 10.833333 0.000000
vt 20.000000 21.666667 0.000000
vt 20.000000 32.500000 0.000000
vt 20.000000 43.333333 0.000000
vt 20.000000 54.166667 0.000000
vt 20.000000 65.000000 0.000000
vt 20.000000 75.833333 0.000000
vt 20.000000 86.666667 0.000000
vt 20.000000 97.500000 0.000000
vt 20.000000 108.333333 0.000000
vt 30.000000 0.000000 0.000000
vt 30.000000 10.833333 0.000000
vt 30.000000 21.666667 0.000000
vt 30.000000 32.500000 0.000000
vt 30.000000 43.333333 0.000000
vt 30.000000 54.166667 0.000000
vt 30.000000 65.000000 0.000000
vt 30.000000 75.833333 0.000000
vt 30.000000 86.666667 0.000000
vt 30.000000 97.500000 0.000000
vt 30.000000 108.333333 0.000000
vt 40.000000 0.000000 0.000000
vt 40.000000 10.833333 0.000000
vt 40.000000 21.666667 0.000000
vt 40.000000 32.500000 0.000000
vt 40.000000 43.333333 0.000000
vt 40.000000 54.166667 0.000000
vt 40.000000 65.000000 0.000000
vt 40.000000 75.833333 0.000000
vt 40.000000 86.666667 0.000000
vt 40.000000 97.500000 0.000000
vt 40.000000 108.333333 0.000000
vt 50.000000 0.000000 0.000000
vt 50.000000 10.833333 0.000000
vt 50.000000 21.666667 0.000000
vt 50.000000 32.500000 0.000000
vt 50.000000 43.333333 0.000000
vt 50.000000 54.166667 0.000000
vt 50.000000 65.000000 0.000000
vt 50.000000 75.833333 0.000000
vt 50.000000 86.666667 0.000000
vt 50.000000 97.500000 0.000000
vt 50.000000 108.333333 0.000000
vt 60.000000 0.000000 0.000000
vt 60.000000 10.833333 0.000000
vt 60.000000 21.666667 0.000000
vt 60.000000 32.500000 0.000000
vt 60.000000 43.333333 0.000000
vt 60.000000 54.166667 0.000000
vt 60.000000 65.000000 0.000000
vt 60.000000 75.833333 0.000000
vt 60.000000 86.666667 0.000000
vt 60.000000 97.500000 0.000000
vt 60.000000 108.333333 0.000000
vt 0.000000 0.000000 0.000000
vt 10.333333 0.000000 0.000000
vt 0.000000 10.833333 0.000000
vt 10.333333 10.833333 0.000000
vt 0.000000 21.666667 0.000000
vt 10.333333 21.666667 0.000000
vt 0.000000 32.500000 0.000000
vt 10.333333 32.500000 0.000000
vt 0.000000 43.333333 0.000000
vt 10.333333 43.333333 0.000000
vt 0.000000 54.166667 0.000000
vt 10.333333 54.166667 0.000000
vt 0.000000 65.000000 0.000000
vt 10.333333 65.000000 0.000000
vt 0.000000 75.833333 0.000000
vt 10.333333 75.833333 0.000000
vt 0.000000 86.666667 0.000000
vt 10.333333 86.666667 0.000000
vt 0.000000 97.500000 0.000000
vt 10.333333 97.500000 0.000000
vt 0.000000 108.333333 0.000000
vt 10.333333 108.333333 0.000000
vt 0.000000 119.166667 0.000000
vt 10.333333 119.166667 0.000000
vt 0.000000 130.000000 0.000000
vt 10.333333 130.000000 0.000000
vt 20.666667 119.166667 0.000000
vt 20.666667 130.000000 0.000000
vt 31.000000 119.166667 0.000000
vt 31.000000 130.000000 0.000000
vt 41.333333 119.166667 0.000000
vt 41.333333 130.000000 0.000000
vt 51.666667 119.166667 0.000000
vt 51.666667 130.000000 0.000000
vt 62.000000 119.166667 0.000000
vt 62.000000 130.000000 0.000000
vt 20.666667 0.000000 0.000000
vt 20.666667 10.833333 0.000000
vt 20.666667 21.666667 0.000000
vt 20.666667 32.500000 0.000000
vt 20.666667 43.333333 0.000000
vt 20.666667 54.166667 0.000000
vt 20.666667 65.000000 0.000000
vt 20.666667 75.833333 0.000000
vt 20.666667 86.666667 0.000000
vt 20.666667 97.500000 0.000000
vt 20.666667 108.333333 0.000000
vt 31.000000 0.000000 0.000000
vt 31.000000 10.833333 0.000000
vt 31.000000 21.666667 0.000000
vt 31.000000 32.500000 0.000000
vt 31.000000 43.333333 0.000000
vt 31.000000 54.166667 0.000000
vt 31.000000 65.000000 0.000000
vt 31.000000 75.833333 0.000000
vt 31.000000 86.666667 0.000000
vt 31.000000 97.500000 0.000000
vt 31.000000 108.333333 0.000000
vt 41.333333 0.000000 0.000000
vt 41.333333 10.833333 0.000000
vt 41.333333 21.666667 0.000000
vt 41.333333 32.500000 0.000000
vt 41.333333 43.333333 0.000000
vt 41.333333 54.166667 0.000000
vt 41.333333 65.000000 0.000000
vt 41.333333 75.833333 0.000000
vt 41.333333 86.666667 0.000000
vt 41.333333 97.500000 0.000000
vt 41.333333 108.333333 0.000000
vt 51.666667 0.000000 0.000000
vt 51.666667 10.833333 0.000000
vt 51.666667 21.666667 0.000000
vt 51.666667 32.500000 0.000000
vt 51.666667 43.333333 0.000000
vt 51.666667 54.166667 0.000000
vt 51.666667 65.000000 0.000000
vt 51.666667 75.833333 0.000000
vt 51.666667 86.666667 0.000000
vt 51.666667 97.500000 0.000000
vt 51.666667 108.333333 0.000000
vt 62.000000 0.000000 0.000000
vt 62.000000 10.833333 0.000000
vt 62.000000 21.666667 0.000000
vt 62.000000 32.500000 0.000000
vt 62.000000 43.333333 0.000000
vt 62.000000 54.166667 0.000000
vt 62.000000 65.000000 0.000000
vt 62.000000 75.833333 0.000000
vt 62.000000 86.666667 0.000000
vt 62.000000 97.500000 0.000000
vt 62.000000 108.333333 0.000000
vt 0.000000 0.000000 0.000000
vt 10.000000 0.000000 0.000000
vt 0.000000 10.833333 0.000000
vt 10.000000 10.833333 0.000000
vt 0.000000 21.666667 0.000000
vt 10.000000 21.666667 0.000000
vt 0.000000 32.500000 0.000000
vt 10.000000 32.500000 0.000000
vt 0.000000 43.333333 0.000000
vt 10.000000 43.333333 0.000000
vt 0.000000 54.166667 0.000000
vt 10.000000 54.166667 0.000000
vt 0.000000 65.000000 0.000000
vt 10.000000 65.000000 0.000000
vt 0.000000 75.833333 0.000000
vt 10.000000 75.833333 0.000000
vt 0.000000 86.666667 0.000000
vt 10.000000 86.666667 0.000000
vt 0.000000 97.500000 0.000000
vt 10.000000 97.500000 0.000000
vt 0.000000 108.333333 0.000000
vt 10.000000 108.333333 0.000000
vt 0.000000 119.166667 0.000000
vt 10.000000 119.166667 0.000000
vt 0.000000 130.000000 0.000000
vt 10.000000 130.000000 0.000000
vt 20.000000 119.166667 0.000000
vt 20.000000 130.000000 0.000000
vt 30.000000 119.166667 0.000000
vt 30.000000 130.000000 0.000000
vt 40.000000 119.166667 0.000000
vt 40.000000 130.000000 0.000000
vt 50.000000 119.166667 0.000000
vt 50.000000 130.000000 0.000000
vt 60.000000 119.166667 0.000000
vt 60.000000 130.000000 0.000000
vt 20.000000 0.000000 0.000000
vt 20.000000 10.833333 0.000000
vt 20.000000 21.666667 0.000000
vt 20.000000 32.500000 0.000000
vt 20.000000 43.333333 0.000000
vt 20.000000 54.166667 0.000000
vt 20.000000 65.000000 0.000000
vt 20.000000 75.833333 0.000000
vt 20.000000 86.666667 0.000000
vt 20.000000 97.500000 0.000000
vt 20.000000 108.333333 0.000000
vt 30.000000 0.000000 0.000000
vt 30.000000 10.833333 0.000000
vt 30.000000 21.666667 0.000000
vt 30.000000 32.500000 0.000000
vt 30.000000 43.333333 0.000000
vt 30.000000 54.166667 0.000000
vt 30.000000 65.000000 0.000000
vt 30.000000 75.833333 0.000000
vt 30.000000 86.666667 0.000000
vt 30.000000 97.500000 0.000000
vt 30.000000 108.333333 0.000000
vt 40.000000 0.000000 0.000000
vt 40.000000 10.833333 0.000000
vt 40.000000 21.666667 0.000000
vt 40.000000 32.500000 0.000000
vt 40.000000 43.333333 0.000000
vt 40.000000 54.166667 0.000000
vt 40.000000 65.000000 0.000000
vt 40.000000 75.833333 0.000000
vt 40.000000 86.666667 0.000000
vt 40.000000 97.500000 0.000000
vt 40.000000 108.333333 0.000000
vt 50.000000 0.000000 0.000000
vt 50.000000 10.833333 0.000000
vt 50.000000 21.666667 0.000000
vt 50.000000 32.500000 0.000000
vt 50.000000 43.333333 0.000000
vt 50.000000 54.166667 0.000000
vt 50.000000 65.000000 0.000000
vt 50.000000 75.833333 0.000000
vt 50.000000 86.666667 0.000000
vt 50.000000 97.500000 0.000000
vt 50.000000 108.333333 0.000000
vt 60.000000 0.000000 0.000000
vt 60.000000 10.833333 0.000000
vt 60.000000 21.666667 0.000000
vt 60.000000 32.500000 0.000000
vt 60.000000 43.333333 0.000000
vt 60.000000 54.166667 0.000000
vt 60.000000 65.000000 0.000000
vt 60.000000 75.833333 0.000000
vt 60.000000 86.666667 0.000000
vt 60.000000 97.500000 0.000000
vt 60.000000 108.333333 0.000000
vt 0.000000 0.000000 0.000000
vt 5.000000 0.000000 0.000000
vt 0.000000 10.833333 0.000000
vt 5.000000 10.833333 0.000000
vt 0.000000 21.666667 0.000000
vt 5.000000 21.666667 0.000000
vt 0.000000 32.500000 0.000000
vt 5.000000 32.500000 0.000000
vt 0.000000 43.333333 0.000000
vt 5.000000 43.333333 0.000000
vt 0.000000 54.166667 0.000000
vt 5.000000 54.166667 0.000000
vt 0.000000 65.000000 0.000000
vt 5.000000 65.000000 0.000000
vt 0.000000 75.833333 0.000000
vt 5.000000 75.833333 0.000000
vt 0.000000 86.666667 0.000000
vt 5.000000 86.666667 0.000000
vt 0.000000 97.500000 0.000000
vt 5.000000 97.500000 0.000000
vt 0.000000 108.333333 0.000000
vt 5.000000 108.333333 0.000000
vt 0.000000 119.166667 0.000000
vt 5.000000 119.166667 0.000000
vt 0.000000 130.000000 0.000000
vt 5.000000 130.000000 0.000000
vt 0.000000 0.000000 0.000000
vt 10.000000 0.000000 0.000000
vt 0.000000 10.833333 0.000000
vt 10.000000 10.833333 0.000000
vt 0.000000 21.666667 0.000000
vt 10.000000 21.666667 0.000000
vt 0.000000 32.500000 0.000000
vt 10.000000 32.500000 0.000000
vt 0.000000 43.333333 0.000000
vt 10.000000 43.333333 0.000000
vt 0.000000 54.166667 0.000000
vt 10.000000 54.166667 0.000000
vt 0.000000 65.000000 0.000000
vt 10.000000 65.000000 0.000000
vt 0.000000 75.833333 0.000000
vt 10.000000 75.833333 0.000000
vt 0.000000 86.666667 0.000000
vt 10.000000 86.666667 0.000000
vt 0.000000 97.500000 0.000000
vt 10.000000 97.500000 0.000000
vt 0.000000 108.333333 0.000000
vt 10.000000 108.333333 0.000000
vt 0.000000 119.166667 0.000000
vt 10.000000 119.166667 0.000000
vt 0.000000 130.000000 0.000000
vt 10.000000 130.000000 0.000000
vt 20.000000 119.166667 0.000000
vt 20.000000 130.000000 0.000000
vt 30.000000 119.166667 0.000000
vt 30.000000 130.000000 0.000000
vt 40.000000 119.166667 0.000000
vt 40.000000 130.000000 0.000000
vt 50.000000 119.166667 0.000000
vt 50.000000 130.000000 0.000000
vt 20.000000 0.000000 0.000000
vt 20.000000 10.833333 0.000000
vt 20.000000 21.666667 0.000000
vt 20.000000 32.500000 0.000000
vt 20.000000 43.333333 0.000000
vt 20.000000 54.166667 0.000000
vt 20.000000 65.000000 0.000000
vt 20.000000 75.833333 0.000000
vt 20.000000 86.666667 0.000000
vt 20.000000 97.500000 0.000000
vt 20.000000 108.333333 0.000000
vt 30.000000 0.000000 0.000000
vt 30.000000 10.833333 0.000000
vt 30.000000 21.666667 0.000000
vt 30.000000 32.500000 0.000000
vt 30.000000 43.333333 0.000000
vt 30.000000 54.166667 0.000000
vt 30.000000 65.000000 0.000000
vt 30.000000 75.833333 0.000000
vt 30.000000 86.666667 0.000000
vt 30.000000 97.500000 0.000000
vt 30.000000 108.333333 0.000000
vt 40.000000 0.000000 0.000000
vt 40.000000 10.833333 0.000000
vt 40.000000 21.666667 0.000000
vt 40.000000 32.500000 0.000000
vt 40.000000 43.333333 0.000000
vt 40.000000 54.166667 0.000000
vt 40.000000 65.000000 0.000000
vt 40.000000 75.833333 0.000000
vt 40.000000 86.666667 0.000000
vt 40.000000 97.500000 0.000000
vt 40.000000 108.333333 0.000000
vt 50.000000 0.000000 0.000000
vt 50.000000 10.833333 0.000000
vt 50.000000 21.666667 0.000000
vt 50.000000 32.500000 0.000000
vt 50.000000 43.333333 0.000000
vt 50.000000 54.166667 0.000000
vt 50.000000 65.000000 0.000000
vt 50.000000 75.833333 0.000000
vt 50.000000 86.666667 0.000000
vt 50.000000 97.500000 0.000000
vt 50.000000 108.333333 0.000000
vt -10.000000 26.000000 0.000000
vt -20.000000 31.000000 0.000000
vt -20.000000 26.000000 0.000000
vt -30.000000 31.000000 0.000000
vt -30.000000 20.666667 0.000000
vt -10.000000 31.000000 0.000000
vt -0.000000 26.000000 0.000000
vt 0.000000 31.000000 0.000000
vt 10.000000 26.000000 0.000000
vt 10.000000 31.000000 0.000000
vt 20.000000 26.000000 0.000000
vt 20.000000 31.000000 0.000000
vt 30.000000 26.000000 0.000000
vt 30.000000 31.000000 0.000000
vt -20.000000 15.600000 0.000000
vt -30.000000 10.333333 0.000000
vt -20.000000 5.200000 0.000000
vt -30.000000 0.000000 0.000000
vt -20.000000 -5.200000 0.000000
vt -30.000000 -10.333333 0.000000
vt -20.000000 -15.600000 0.000000
vt -30.000000 -20.666667 0.000000
vt -20.000000 -26.000000 0.000000
vt -30.000000 -31.000000 0.000000
vt -20.000000 -31.000000 0.000000
vt -10.000000 -31.000000 0.000000
vt -10.000000 -26.000000 0.000000
vt 0.000000 -31.000000 0.000000
vt 0.000000 -26.000000 0.000000
vt 10.000000 -31.000000 0.000000
vt 10.000000 -26.000000 0.000000
vt 20.000000 -31.000000 0.000000
vt 20.000000 -26.000000 0.000000
vt 30.000000 -31.000000 0.000000
vt 30.000000 -26.000000 0.000000
vt -31.000000 -30.000000 0.000000
vt -26.000000 -30.000000 0.000000
vt -31.000000 -20.000000 0.000000
vt -26.000000 -20.000000 0.000000
vt -31.000000 -10.000000 0.000000
vt -26.000000 -10.000000 0.000000
vt -31.000000 0.000000 0.000000
vt -26.000000 0.000000 0.000000
vt -31.000000 10.000000 0.000000
vt -26.000000 10.000000 0.000000
vt -31.000000 20.000000 0.000000
vt -26.000000 20.000000 0.000000
vt -31.000000 30.000000 0.000000
vt -20.666667 30.000000 0.000000
vt -15.600000 20.000000 0.000000
vt -10.333333 30.000000 0.000000
vt -5.200000 20.000000 0.000000
vt -0.000000 30.000000 0.000000
vt 5.200000 20.000000 0.000000
vt 10.333333 30.000000 0.000000
vt 15.600000 20.000000 0.000000
vt 20.666667 30.000000 0.000000
vt 26.000000 20.000000 0.000000
vt 31.000000 30.000000 0.000000
vt 31.000000 20.000000 0.000000
vt 31.000000 10.000000 0.000000
vt 26.000000 10.000000 0.000000
vt 31.000000 0.000000 0.000000
vt 26.000000 0.000000 0.000000
vt 31.000000 -10.000000 0.000000
vt 26.000000 -10.000000 0.000000
vt 31.000000 -20.000000 0.000000
vt 26.000000 -20.000000 0.000000
vt 31.000000 -30.000000 0.000000
vt 26.000000 -30.000000 0.000000
vn 0.000000 0.000000 -1.000000
vn 0.000000 0.000000 -1.000000
vn 0.000000 0.000000 -1.000000
vn 0.000000 0.000000 -1.000000
vn 0.000000 0.000000 -1.000000
vn 0.000000 0.000000 -1.000000
vn 0.000000 0.000000 -1.000000
vn 0.000000 0.000000 -1.000000
vn 0.000000 0.000000 -1.000000
vn 0.000000 0.000000 -1.000000
vn 0.000000 0.000000 -1.000000
vn 0.000000 0.000000 -1.000000
vn 0.000000 0.000000 -1.000000
vn 0.000000 0.000000 -1.000000
vn 0.000000 0.000000 -1.000000
vn 0.000000 0.000000 -1.000000
vn 0.000000 0.000000 -1.000000
vn 0.000000 0.000000 -1.000000
vn 0.000000 0.000000 -1.000000
vn 0.000000 0.000000 -1.000000
vn 0.000000 0.000000 -1.000000
vn 0.000000 0.000000 -1.000000
vn 0.000000 0.000000 -1.000000
vn 0.000000 0.000000 -1.000000
vn 0.000000 0.000000 -1.000000
vn 0.000000 0.000000 -1.000000
vn 0.000000 0.000000 -1.000000
vn 0.000000 0.000000 -1.000000
vn 0.000000 0.000000 -1.000000
vn 0.000000 0.000000 -1.000000
vn 0.000000 0.000000 -1.000000
vn 0.000000 0.000000 -1.000000
vn 0.000000 0.000000 -1.000000
vn 0.000000 0.000000 -1.000000
vn 0.000000 0.000000 -1.000000
vn 0.000000 0.000000 -1.000000
vn 0.000000 0.000000 -1.000000
vn 0.000000 0.000000 -1.000000
vn 0.000000 0.000000 -1.000000
vn 0.000000 0.000000 -1.000000
vn 0.000000 0.000000 -1.000000
vn 0.000000 0.000000 -1.000000
vn 0.000000 0.000000 -1.000000
vn 0.000000 0.000000 -1.000000
vn 0.000000 0.000000 -1.000000
vn 0.000000 0.000000 -1.000000
vn 0.000000 0.000000 -1.000000
vn 0.000000 0.000000 -1.000000
vn 0.000000 0.000000 -1.000000
vn 0.000000 0.000000 -1.000000
vn 0.000000 0.000000 -1.000000
vn 0.000000 0.000000 -1.000000
vn 0.000000 0.000000 -1.000000
vn 0.000000 0.000000 -1.000000
vn 0.000000 0.000000 -1.000000
vn 0.000000 0.000000 -1.000000
vn 0.000000 0.000000 -1.000000
vn 0.000000 0.000000 -1.000000
vn 0.000000 0.000000 -1.000000
vn 0.000000 0.000000 -1.000000
vn 0.000000 0.000000 -1.000000
vn 0.000000 0.000000 -1.000000
vn 0.000000 0.000000 -1.000000
vn 0.000000 0.000000 -1.000000
vn 0.000000 0.000000 -1.000000
vn 0.000000 0.000000 -1.000000
vn 0.000000 0.000000 -1.000000
vn 0.000000 0.000000 -1.000000
vn 0.000000 0.000000 -1.000000
vn 0.000000 0.000000 -1.000000
vn 0.000000 0.000000 -1.000000
vn 0.000000 0.000000 -1.000000
vn 0.000000 0.000000 -1.000000
vn 0.000000 0.000000 -1.000000
vn 0.000000 0.000000 -1.000000
vn 0.000000 0.000000 -1.000000
vn 0.000000 0.000000 -1.000000
vn 0.000000 0.000000 -1.000000
vn 0.000000 1.000000 0.000000
vn 0.000000 1.000000 0.000000
vn 0.000000 1.000000 0.000000
vn 0.000000 1.000000 0.000000
vn 0.000000 1.000000 0.000000
vn 0.000000 1.000000 0.000000
vn 0.000000 1.000000 0.000000
vn 0.000000 1.000000 0.000000
vn 0.000000 1.000000 0.000000
vn 0.000000 1.000000 0.000000
vn 0.000000 1.000000 0.000000
vn 0.000000 1.000000 0.000000
vn 0.000000 1.000000 0.000000
vn 0.000000 1.000000 0.000000
vn 0.000000 1.000000 0.000000
vn 0.000000 1.000000 0.000000
vn 0.000000 1.000000 0.000000
vn 0.000000 1.000000 0.000000
vn 0.000000 1.000000 0.000000
vn 0.000000 1.000000 0.000000
vn 0.000000 1.000000 0.000000
vn 0.000000 1.000000 0.000000
vn 0.000000 1.000000 0.000000
vn 0.000000 1.000000 0.000000
vn 0.000000 1.000000 0.000000
vn 0.000000 1.000000 0.000000
vn 0.000000 1.000000 0.000000
vn 0.000000 1.000000 0.000000
vn 0.000000 1.000000 0.000000
vn 0.000000 1.000000 0.000000
vn 0.000000 1.000000 0.000000
vn 0.000000 1.000000 0.000000
vn 0.000000 1.000000 0.000000
vn 0.000000 1.000000 0.000000
vn 0.000000 1.000000 0.000000
vn 0.000000 1.000000 0.000000
vn 0.000000 1.000000 0.000000
vn 0.000000 1.000000 0.000000
vn 0.000000 1.000000 0.000000
vn 0.000000 1.000000 0.000000
vn 0.000000 1.000000 0.000000
vn 0.000000 1.000000 0.000000
vn 0.000000 1.000000 0.000000
vn 0.000000 1.000000 0.000000
vn 0.000000 1.000000 0.000000
vn 0.000000 1.000000 0.000000
vn 0.000000 1.000000 0.000000
vn 0.000000 1.000000 0.000000
vn 0.000000 1.000000 0.000000
vn 0.000000 1.000000 0.000000
vn 0.000000 1.000000 0.000000
vn 0.000000 1.000000 0.000000
vn 0.000000 1.000000 0.000000
vn 0.000000 1.000000 0.000000
vn 0.000000 1.000000 0.000000
vn 0.000000 1.000000 0.000000
vn 0.000000 1.000000 0.000000
vn 0.000000 1.000000 0.000000
vn 0.000000 1.000000 0.000000
vn 0.000000 1.000000 0.000000
vn 0.000000 1.000000 0.000000
vn 0.000000 1.000000 0.000000
vn 0.000000 1.000000 0.000000
vn 0.000000 1.000000 0.000000
vn 0.000000 1.000000 0.000000
vn 0.000000 1.000000 0.000000
vn 0.000000 1.000000 0.000000
vn 0.000000 1.000000 0.000000
vn 0.000000 1.000000 0.000000
vn 0.000000 1.000000 0.000000
vn 0.000000 1.000000 0.000000
vn 0.000000 1.000000 0.000000
vn 0.000000 1.000000 0.000000
vn 0.000000 1.000000 0.000000
vn 0.000000 1.000000 0.000000
vn 0.000000 1.000000 0.000000
vn 0.000000 1.000000 0.000000
vn 0.000000 1.000000 0.000000
vn 0.000000 0.000000 -1.000000
vn 0.000000 0.000000 -1.000000
vn 0.000000 0.000000 -1.000000
vn 0.000000 0.000000 -1.000000
vn 0.000000 0.000000 -1.000000
vn 0.000000 0.000000 -1.000000
vn 0.000000 0.000000 -1.000000
vn 0.000000 0.000000 -1.000000
vn 0.000000 0.000000 -1.000000
vn 0.000000 0.000000 -1.000000
vn 0.000000 0.000000 -1.000000
vn 0.000000 0.000000 -1.000000
vn 0.000000 0.000000 -1.000000
vn 0.000000 0.000000 -1.000000
vn 0.000000 0.000000 -1.000000
vn 0.000000 0.000000 -1.000000
vn 0.000000 0.000000 -1.000000
vn 0.000000 0.000000 -1.000000
vn 0.000000 0.000000 -1.000000
vn 0.000000 0.000000 -1.000000
vn 0.000000 0.000000 -1.000000
vn 0.000000 0.000000 -1.000000
vn 0.000000 0.000000 -1.000000
vn 0.000000 0.000000 -1.000000
vn 0.000000 0.000000 -1.000000
vn 0.000000 0.000000 -1.000000
vn 0.000000 -1.000000 0.000000
vn 0.000000 -1.000000 0.000000
vn 0.000000 -1.000000 0.000000
vn 0.000000 -1.000000 0.000000
vn 0.000000 -1.000000 0.000000
vn 0.000000 -1.000000 0.000000
vn 0.000000 -1.000000 0.000000
vn 0.000000 -1.000000 0.000000
vn 0.000000 -1.000000 0.000000
vn 0.000000 -1.000000 0.000000
vn 0.000000 -1.000000 0.000000
vn 0.000000 -1.000000 0.000000
vn 0.000000 -1.000000 0.000000
vn 0.000000 -1.000000 0.000000
vn 0.000000 -1.000000 0.000000
vn 0.000000 -1.000000 0.000000
vn 0.000000 -1.000000 0.000000
vn 0.000000 -1.000000 0.000000
vn 0.000000 -1.000000 0.000000
vn 0.000000 -1.000000 0.000000
vn 0.000000 -1.000000 0.000000
vn 0.000000 -1.000000 0.000000
vn 0.000000 -1.000000 0.000000
vn 0.000000 -1.000000 0.000000
vn 0.000000 -1.000000 0.000000
vn 0.000000 -1.000000 0.000000
vn 0.000000 -1.000000 0.000000
vn 0.000000 -1.000000 0.000000
vn 0.000000 -1.000000 0.000000
vn 0.000000 -1.000000 0.000000
vn 0.000000 -1.000000 0.000000
vn 0.000000 -1.000000 0.000000
vn 0.000000 -1.000000 0.000000
vn 0.000000 -1.000000 0.000000
vn 0.000000 -1.000000 0.000000
vn 0.000000 -1.000000 0.000000
vn 0.000000 -1.000000 0.000000
vn 0.000000 -1.000000 0.000000
vn 0.000000 -1.000000 0.000000
vn 0.000000 -1.000000 0.000000
vn 0.000000 -1.000000 0.000000
vn 0.000000 -1.000000 0.000000
vn 0.000000 -1.000000 0.000000
vn 0.000000 -1.000000 0.000000
vn 0.000000 -1.000000 0.000000
vn 0.000000 -1.000000 0.000000
vn 0.000000 -1.000000 0.000000
vn 0.000000 -1.000000 0.000000
vn 0.000000 -1.000000 0.000000
vn 0.000000 -1.000000 0.000000
vn 0.000000 -1.000000 0.000000
vn 0.000000 -1.000000 0.000000
vn 0.000000 -1.000000 0.000000
vn 0.000000 -1.000000 0.000000
vn 0.000000 -1.000000 0.000000
vn 0.000000 -1.000000 0.000000
vn 0.000000 -1.000000 0.000000
vn 0.000000 -1.000000 0.000000
vn 0.000000 -1.000000 0.000000
vn 0.000000 -1.000000 0.000000
vn 0.000000 -1.000000 0.000000
vn 0.000000 -1.000000 0.000000
vn 0.000000 -1.000000 0.000000
vn 0.000000 -1.000000 0.000000
vn 0.000000 -1.000000 0.000000
vn 0.000000 -1.000000 0.000000
vn 0.000000 -1.000000 0.000000
vn 0.000000 -1.000000 0.000000
vn 0.000000 -1.000000 0.000000
vn 0.000000 -1.000000 0.000000
vn 0.000000 -1.000000 0.000000
vn 0.000000 -1.000000 0.000000
vn 0.000000 -1.000000 0.000000
vn 0.000000 -1.000000 0.000000
vn 0.000000 -1.000000 0.000000
vn 0.000000 -1.000000 0.000000
vn 0.000000 -1.000000 0.000000
vn 0.000000 -1.000000 0.000000
vn 0.000000 -1.000000 0.000000
vn 0.000000 -1.000000 0.000000
vn 0.000000 -1.000000 0.000000
vn 0.000000 -1.000000 0.000000
vn 0.000000 -1.000000 0.000000
vn 0.000000 -1.000000 0.000000
vn 0.000000 -1.000000 0.000000
vn 0.000000 -1.000000 0.000000
vn 0.000000 -1.000000 0.000000
vn 0.000000 -1.000000 0.000000
vn 0.000000 -1.000000 0.000000
vn 0.000000 -1.000000 0.000000
vn 0.000000 -1.000000 0.000000
vn -0.000000 0.000000 1.000000
vn -0.000000 0.000000 1.000000
vn -0.000000 0.000000 1.000000
vn -0.000000 0.000000 1.000000
vn -0.000000 0.000000 1.000000
vn -0.000000 0.000000 1.000000
vn -0.000000 0.000000 1.000000
vn -0.000000 0.000000 1.000000
vn -0.000000 0.000000 1.000000
vn -0.000000 0.000000 1.000000
vn -0.000000 0.000000 1.000000
vn -0.000000 0.000000 1.000000
vn -0.000000 0.000000 1.000000
vn -0.000000 0.000000 1.000000
vn -0.000000 0.000000 1.000000
vn -0.000000 0.000000 1.000000
vn -0.000000 0.000000 1.000000
vn -0.000000 0.000000 1.000000
vn -0.000000 0.000000 1.000000
vn -0.000000 0.000000 1.000000
vn -0.000000 0.000000 1.000000
vn -0.000000 0.000000 1.000000
vn -0.000000 0.000000 1.000000
vn -0.000000 0.000000 1.000000
vn -0.000000 0.000000 1.000000
vn -0.000000 0.000000 1.000000
vn -0.000000 0.000000 1.000000
vn -0.000000 0.000000 1.000000
vn -0.000000 0.000000 1.000000
vn -0.000000 0.000000 1.000000
vn -0.000000 0.000000 1.000000
vn -0.000000 0.000000 1.000000
vn -0.000000 0.000000 1.000000
vn -0.000000 0.000000 1.000000
vn -0.000000 0.000000 1.000000
vn -0.000000 0.000000 1.000000
vn -0.000000 0.000000 1.000000
vn -0.000000 0.000000 1.000000
vn -0.000000 0.000000 1.000000
vn -0.000000 0.000000 1.000000
vn -0.000000 0.000000 1.000000
vn -0.000000 0.000000 1.000000
vn -0.000000 0.000000 1.000000
vn -0.000000 0.000000 1.000000
vn -0.000000 0.000000 1.000000
vn -0.000000 0.000000 1.000000
vn -0.000000 0.000000 1.000000
vn -0.000000 0.000000 1.000000
vn -0.000000 0.000000 1.000000
vn -0.000000 0.000000 1.000000
vn -0.000000 0.000000 1.000000
vn -0.000000 0.000000 1.000000
vn -0.000000 0.000000 1.000000
vn -0.000000 0.000000 1.000000
vn -0.000000 0.000000 1.000000
vn -0.000000 0.000000 1.000000
vn -0.000000 0.000000 1.000000
vn -0.000000 0.000000 1.000000
vn -0.000000 0.000000 1.000000
vn -0.000000 0.000000 1.000000
vn -0.000000 0.000000 1.000000
vn -0.000000 0.000000 1.000000
vn -0.000000 0.000000 1.000000
vn -0.000000 0.000000 1.000000
vn -0.000000 0.000000 1.000000
vn -0.000000 0.000000 1.000000
vn -0.000000 0.000000 1.000000
vn -0.000000 0.000000 1.000000
vn -0.000000 0.000000 1.000000
vn -0.000000 0.000000 1.000000
vn -0.000000 0.000000 1.000000
vn -0.000000 0.000000 1.000000
vn -0.000000 0.000000 1.000000
vn -0.000000 0.000000 1.000000
vn -0.000000 0.000000 1.000000
vn -0.000000 0.000000 1.000000
vn -0.000000 0.000000 1.000000
vn -0.000000 0.000000 1.000000
vn -0.000000 0.000000 1.000000
vn -0.000000 0.000000 1.000000
vn -0.000000 0.000000 1.000000
vn -0.000000 0.000000 1.000000
vn -0.000000 0.000000 1.000000
vn -0.000000 0.000000 1.000000
vn -0.000000 0.000000 1.000000
vn -0.000000 0.000000 1.000000
vn -0.000000 0.000000 1.000000
vn -0.000000 0.000000 1.000000
vn -0.000000 0.000000 1.000000
vn -0.000000 0.000000 1.000000
vn -0.000000 0.000000 1.000000
vn 0.000000 1.000000 0.000000
vn 0.000000 1.000000 0.000000
vn 0.000000 1.000000 0.000000
vn 0.000000 1.000000 0.000000
vn 0.000000 1.000000 0.000000
vn 0.000000 1.000000 0.000000
vn 0.000000 1.000000 0.000000
vn 0.000000 1.000000 0.000000
vn 0.000000 1.000000 0.000000
vn 0.000000 1.000000 0.000000
vn 0.000000 1.000000 0.000000
vn 0.000000 1.000000 0.000000
vn 0.000000 1.000000 0.000000
vn 0.000000 1.000000 0.000000
vn 0.000000 1.000000 0.000000
vn 0.000000 1.000000 0.000000
vn 0.000000 1.000000 0.000000
vn 0.000000 1.000000 0.000000
vn 0.000000 1.000000 0.000000
vn 0.000000 1.000000 0.000000
vn 0.000000 1.000000 0.000000
vn 0.000000 1.000000 0.000000
vn 0.000000 1.000000 0.000000
vn 0.000000 1.000000 0.000000
vn 0.000000 1.000000 0.000000
vn 0.000000 1.000000 0.000000
vn 0.000000 1.000000 0.000000
vn 0.000000 1.000000 0.000000
vn 0.000000 1.000000 0.000000
vn 0.000000 1.000000 0.000000
vn 0.000000 1.000000 0.000000
vn 0.000000 1.000000 0.000000
vn 0.000000 1.000000 0.000000
vn 0.000000 1.000000 0.000000
vn 0.000000 1.000000 0.000000
vn 0.000000 1.000000 0.000000
vn 0.000000 1.000000 0.000000
vn 0.000000 1.000000 0.000000
vn 0.000000 1.000000 0.000000
vn 0.000000 1.000000 0.000000
vn 0.000000 1.000000 0.000000
vn 0.000000 1.000000 0.000000
vn 0.000000 1.000000 0.000000
vn 0.000000 1.000000 0.000000
vn 0.000000 1.000000 0.000000
vn 0.000000 1.000000 0.000000
vn 0.000000 1.000000 0.000000
vn 0.000000 1.000000 0.000000
vn 0.000000 1.000000 0.000000
vn 0.000000 1.000000 0.000000
vn 0.000000 1.000000 0.000000
vn 0.000000 1.000000 0.000000
vn 0.000000 1.000000 0.000000
vn 0.000000 1.000000 0.000000
vn 0.000000 1.000000 0.000000
vn 0.000000 1.000000 0.000000
vn 0.000000 1.000000 0.000000
vn 0.000000 1.000000 0.000000
vn 0.000000 1.000000 0.000000
vn 0.000000 1.000000 0.000000
vn 0.000000 1.000000 0.000000
vn 0.000000 1.000000 0.000000
vn 0.000000 1.000000 0.000000
vn 0.000000 1.000000 0.000000
vn 0.000000 1.000000 0.000000
vn 0.000000 1.000000 0.000000
vn 0.000000 1.000000 0.000000
vn 0.000000 1.000000 0.000000
vn 0.000000 1.000000 0.000000
vn 0.000000 1.000000 0.000000
vn 0.000000 1.000000 0.000000
vn 0.000000 1.000000 0.000000
vn 0.000000 1.000000 0.000000
vn 0.000000 1.000000 0.000000
vn 0.000000 1.000000 0.000000
vn 0.000000 1.000000 0.000000
vn 0.000000 1.000000 0.000000
vn 0.000000 1.000000 0.000000
vn 0.000000 1.000000 0.000000
vn 0.000000 1.000000 0.000000
vn 0.000000 1.000000 0.000000
vn 0.000000 1.000000 0.000000
vn 0.000000 1.000000 0.000000
vn 0.000000 1.000000 0.000000
vn 0.000000 1.000000 0.000000
vn 0.000000 1.000000 0.000000
vn 0.000000 1.000000 0.000000
vn 0.000000 1.000000 0.000000
vn 0.000000 1.000000 0.000000
vn 0.000000 1.000000 0.000000
vn 0.000000 1.000000 0.000000
vn 0.000000 0.000000 -1.000000
vn 0.000000 0.000000 -1.000000
vn 0.000000 0.000000 -1.000000
vn 0.000000 0.000000 -1.000000
vn 0.000000 0.000000 -1.000000
vn 0.000000 0.000000 -1.000000
vn 0.000000 0.000000 -1.000000
vn 0.000000 0.000000 -1.000000
vn 0.000000 0.000000 -1.000000
vn 0.000000 0.000000 -1.000000
vn 0.000000 0.000000 -1.000000
vn 0.000000 0.000000 -1.000000
vn 0.000000 0.000000 -1.000000
vn 0.000000 0.000000 -1.000000
vn 0.000000 0.000000 -1.000000
vn 0.000000 0.000000 -1.000000
vn 0.000000 0.000000 -1.000000
vn 0.000000 0.000000 -1.000000
vn 0.000000 0.000000 -1.000000
vn 0.000000 0.000000 -1.000000
vn 0.000000 0.000000 -1.000000
vn 0.000000 0.000000 -1.000000
vn 0.000000 0.000000 -1.000000
vn 0.000000 0.000000 -1.000000
vn 0.000000 0.000000 -1.000000
vn 0.000000 0.000000 -1.000000
vn 0.000000 -1.000000 0.000000
vn 0.000000 -1.000000 0.000000
vn 0.000000 -1.000000 0.000000
vn 0.000000 -1.000000 0.000000
vn 0.000000 -1.000000 0.000000
vn 0.000000 -1.000000 0.000000
vn 0.000000 -1.000000 0.000000
vn 0.000000 -1.000000 0.000000
vn 0.000000 -1.000000 0.000000
vn 0.000000 -1.000000 0.000000
vn 0.000000 -1.000000 0.000000
vn 0.000000 -1.000000 0.000000
vn 0.000000 -1.000000 0.000000
vn 0.000000 -1.000000 0.000000
vn 0.000000 -1.000000 0.000000
vn 0.000000 -1.000000 0.000000
vn 0.000000 -1.000000 0.000000
vn 0.000000 -1.000000 0.000000
vn 0.000000 -1.000000 0.000000
vn 0.000000 -1.000000 0.000000
vn 0.000000 -1.000000 0.000000
vn 0.000000 -1.000000 0.000000
vn 0.000000 -1.000000 0.000000
vn 0.000000 -1.000000 0.000000
vn 0.000000 -1.000000 0.000000
vn 0.000000 -1.000000 0.000000
vn 0.000000 -1.000000 0.000000
vn 0.000000 -1.000000 0.000000
vn 0.000000 -1.000000 0.000000
vn 0.000000 -1.000000 0.000000
vn 0.000000 -1.000000 0.000000
vn 0.000000 -1.000000 0.000000
vn 0.000000 -1.000000 0.000000
vn 0.000000 -1.000000 0.000000
vn 0.000000 -1.000000 0.000000
vn 0.000000 -1.000000 0.000000
vn 0.000000 -1.000000 0.000000
vn 0.000000 -1.000000 0.000000
vn 0.000000 -1.000000 0.000000
vn 0.000000 -1.000000 0.000000
vn 0.000000 -1.000000 0.000000
vn 0.000000 -1.000000 0.000000
vn 0.000000 -1.000000 0.000000
vn 0.000000 -1.000000 0.000000
vn 0.000000 -1.000000 0.000000
vn 0.000000 -1.000000 0.000000
vn 0.000000 -1.000000 0.000000
vn 0.000000 -1.000000 0.000000
vn 0.000000 -1.000000 0.000000
vn 0.000000 -1.000000 0.000000
vn 0.000000 -1.000000 0.000000
vn 0.000000 -1.000000 0.000000
vn 0.000000 -1.000000 0.000000
vn 0.000000 -1.000000 0.000000
vn 0.000000 -1.000000 0.000000
vn 0.000000 -1.000000 0.000000
vn 0.000000 -1.000000 0.000000
vn 0.000000 -1.000000 0.000000
vn 0.000000 -1.000000 0.000000
vn 0.000000 -1.000000 0.000000
vn 0.000000 -1.000000 0.000000
vn 0.000000 -1.000000 0.000000
vn 0.000000 -1.000000 0.000000
vn 0.000000 -1.000000 0.000000
vn 0.000000 -1.000000 0.000000
vn 0.000000 -1.000000 0.000000
vn 0.000000 -1.000000 0.000000
vn 0.000000 -1.000000 0.000000
vn 0.000000 -1.000000 0.000000
vn 0.000000 -1.000000 0.000000
vn 0.000000 -1.000000 0.000000
vn 0.000000 -1.000000 0.000000
vn 0.000000 -1.000000 0.000000
vn 0.000000 -1.000000 0.000000
vn 0.000000 -1.000000 0.000000
vn 0.000000 -1.000000 0.000000
vn 0.000000 -1.000000 0.000000
vn 0.000000 -1.000000 0.000000
vn 1.000000 0.000000 0.000000
vn 1.000000 0.000000 0.000000
vn 1.000000 0.000000 0.000000
vn 1.000000 0.000000 0.000000
vn 1.000000 0.000000 0.000000
vn 1.000000 0.000000 0.000000
vn 1.000000 0.000000 0.000000
vn 1.000000 0.000000 0.000000
vn 1.000000 0.000000 0.000000
vn 1.000000 0.000000 0.000000
vn 1.000000 0.000000 0.000000
vn 1.000000 0.000000 0.000000
vn 1.000000 0.000000 0.000000
vn 1.000000 0.000000 0.000000
vn 1.000000 0.000000 0.000000
vn 1.000000 0.000000 0.000000
vn 1.000000 0.000000 0.000000
vn 1.000000 0.000000 0.000000
vn 1.000000 0.000000 0.000000
vn 1.000000 0.000000 0.000000
vn 1.000000 0.000000 0.000000
vn 1.000000 0.000000 0.000000
vn 1.000000 0.000000 0.000000
vn 1.000000 0.000000 0.000000
vn 1.000000 0.000000 0.000000
vn 1.000000 0.000000 0.000000
vn 1.000000 0.000000 0.000000
vn 1.000000 0.000000 0.000000
vn 1.000000 0.000000 0.000000
vn 1.000000 0.000000 0.000000
vn 1.000000 0.000000 0.000000
vn 1.000000 0.000000 0.000000
vn 1.000000 0.000000 0.000000
vn 1.000000 0.000000 0.000000
vn 1.000000 0.000000 0.000000
vn -1.000000 -0.000000 -0.000000
vn -1.000000 -0.000000 -0.000000
vn -1.000000 -0.000000 -0.000000
vn -1.000000 -0.000000 -0.000000
vn -1.000000 -0.000000 -0.000000
vn -1.000000 -0.000000 -0.000000
vn -1.000000 -0.000000 -0.000000
vn -1.000000 -0.000000 -0.000000
vn -1.000000 -0.000000 -0.000000
vn -1.000000 -0.000000 -0.000000
vn -1.000000 -0.000000 -0.000000
vn -1.000000 -0.000000 -0.000000
vn -1.000000 -0.000000 -0.000000
vn -1.000000 -0.000000 -0.000000
vn -1.000000 -0.000000 -0.000000
vn -1.000000 -0.000000 -0.000000
vn -1.000000 -0.000000 -0.000000
vn -1.000000 -0.000000 -0.000000
vn -1.000000 -0.000000 -0.000000
vn -1.000000 -0.000000 -0.000000
vn -1.000000 -0.000000 -0.000000
vn -1.000000 -0.000000 -0.000000
vn -1.000000 -0.000000 -0.000000
vn -1.000000 -0.000000 -0.000000
vn -1.000000 -0.000000 -0.000000
vn -1.000000 -0.000000 -0.000000
vn -1.000000 -0.000000 -0.000000
vn -1.000000 -0.000000 -0.000000
vn -1.000000 -0.000000 -0.000000
vn -1.000000 -0.000000 -0.000000
vn -1.000000 -0.000000 -0.000000
vn -1.000000 -0.000000 -0.000000
vn -1.000000 -0.000000 -0.000000
vn -1.000000 -0.000000 -0.000000
vn -1.000000 -0.000000 -0.000000
usemtl Steel_-_Satin
f 1/1/1 2/2/2 34/3/3
f 34/3/3 2/2/2 38/4/4
f 34/3/3 38/4/4 33/5/5
f 33/5/5 38/4/4 42/6/6
f 33/5/5 42/6/6 32/7/7
f 32/7/7 42/6/6 46/8/8
f 32/7/7 46/8/8 31/9/9
f 31/9/9 46/8/8 50/10/10
f 31/9/9 50/10/10 30/11/11
f 30/11/11 50/10/10 54/12/12
f 30/11/11 54/12/12 29/13/13
f 29/13/13 54/12/12 58/14/14
f 29/13/13 58/14/14 28/15/15
f 28/15/15 58/14/14 62/16/16
f 28/15/15 62/16/16 27/17/17
f 27/17/17 62/16/16 66/18/18
f 27/17/17 66/18/18 26/19/19
f 26/19/19 66/18/18 70/20/20
f 26/19/19 70/20/20 25/21/21
f 25/21/21 70/20/20 74/22/22
f 25/21/21 74/22/22 24/23/23
f 24/23/23 74/22/22 78/24/24
f 24/23/23 78/24/24 23/25/25
f 23/25/25 78/24/24 22/26/26
f 22/26/26 78/24/24 77/27/27
f 22/26/26 77/27/27 21/28/28
f 21/28/28 77/27/27 76/29/29
f 21/28/28 76/29/29 20/30/30
f 20/30/30 76/29/29 75/31/31
f 20/30/30 75/31/31 19/32/32
f 19/32/32 75/31/31 17/33/33
f 19/32/32 17/33/33 18/34/34
f 2/2/2 3/35/35 38/4/4
f 38/4/4 3/35/35 37/36/36
f 38/4/4 37/36/36 42/6/6
f 42/6/6 37/36/36 41/37/37
f 42/6/6 41/37/37 46/8/8
f 46/8/8 41/37/37 45/38/38
f 46/8/8 45/38/38 50/10/10
f 50/10/10 45/38/38 49/39/39
f 50/10/10 49/39/39 54/12/12
f 54/12/12 49/39/39 53/40/40
f 54/12/12 53/40/40 58/14/14
f 58/14/14 53/40/40 57/41/41
f 58/14/14 57/41/41 62/16/16
f 62/16/16 57/41/41 61/42/42
f 62/16/16 61/42/42 66/18/18
f 66/18/18 61/42/42 65/43/43
f 66/18/18 65/43/43 70/20/20
f 70/20/20 65/43/43 69/44/44
f 70/20/20 69/44/44 74/22/22
f 74/22/22 69/44/44 73/45/45
f 74/22/22 73/45/45 78/24/24
f 78/24/24 73/45/45 77/27/27
f 3/35/35 4/46/46 37/36/36
f 37/36/36 4/46/46 36/47/47
f 37/36/36 36/47/47 41/37/37
f 41/37/37 36/47/47 40/48/48
f 41/37/37 40/48/48 45/38/38
f 45/38/38 40/48/48 44/49/49
f 45/38/38 44/49/49 49/39/39
f 49/39/39 44/49/49 48/50/50
f 49/39/39 48/50/50 53/40/40
f 53/40/40 48/50/50 52/51/51
f 53/40/40 52/51/51 57/41/41
f 57/41/41 52/51/51 56/52/52
f 57/41/41 56/52/52 61/42/42
f 61/42/42 56/52/52 60/53/53
f 61/42/42 60/53/53 65/43/43
f 65/43/43 60/53/53 64/54/54
f 65/43/43 64/54/54 69/44/44
f 69/44/44 64/54/54 68/55/55
f 69/44/44 68/55/55 73/45/45
f 73/45/45 68/55/55 72/56/56
f 73/45/45 72/56/56 77/27/27
f 77/27/27 72/56/56 76/29/29
f 4/46/46 5/57/57 36/47/47
f 36/47/47 5/57/57 35/58/58
f 36/47/47 35/58/58 40/48/48
f 40/48/48 35/58/58 39/59/59
f 40/48/48 39/59/59 44/49/49
f 44/49/49 39/59/59 43/60/60
f 44/49/49 43/60/60 48/50/50
f 48/50/50 43/60/60 47/61/61
f 48/50/50 47/61/61 52/51/51
f 52/51/51 47/61/61 51/62/62
f 52/51/51 51/62/62 56/52/52
f 56/52/52 51/62/62 55/63/63
f 56/52/52 55/63/63 60/53/53
f 60/53/53 55/63/63 59/64/64
f 60/53/53 59/64/64 64/54/54
f 64/54/54 59/64/64 63/65/65
f 64/54/54 63/65/65 68/55/55
f 68/55/55 63/65/65 67/66/66
f 68/55/55 67/66/66 72/56/56
f 72/56/56 67/66/66 71/67/67
f 72/56/56 71/67/67 76/29/29
f 76/29/29 71/67/67 75/31/31
f 5/57/57 6/68/68 35/58/58
f 35/58/58 6/68/68 7/69/69
f 35/58/58 7/69/69 39/59/59
f 39/59/59 7/69/69 8/70/70
f 39/59/59 8/70/70 43/60/60
f 43/60/60 8/70/70 9/71/71
f 43/60/60 9/71/71 47/61/61
f 47/61/61 9/71/71 10/72/72
f 47/61/61 10/72/72 51/62/62
f 51/62/62 10/72/72 11/73/73
f 51/62/62 11/73/73 55/63/63
f 55/63/63 11/73/73 12/74/74
f 55/63/63 12/74/74 59/64/64
f 59/64/64 12/74/74 13/75/75
f 59/64/64 13/75/75 63/65/65
f 63/65/65 13/75/75 14/76/76
f 63/65/65 14/76/76 67/66/66
f 67/66/66 14/76/76 15/77/77
f 67/66/66 15/77/77 71/67/67
f 71/67/67 15/77/77 16/78/78
f 71/67/67 16/78/78 75/31/31
f 75/31/31 16/78/78 17/33/33
f 79/79/79 80/80/80 99/81/81
f 99/81/81 80/80/80 103/82/82
f 99/81/81 103/82/82 98/83/83
f 98/83/83 103/82/82 107/84/84
f 98/83/83 107/84/84 97/85/85
f 97/85/85 107/84/84 111/86/86
f 97/85/85 111/86/86 96/87/87
f 96/87/87 111/86/86 115/88/88
f 96/87/87 115/88/88 95/89/89
f 95/89/89 115/88/88 119/90/90
f 95/89/89 119/90/90 94/91/91
f 94/91/91 119/90/90 123/92/92
f 94/91/91 123/92/92 93/93/93
f 93/93/93 123/92/92 127/94/94
f 93/93/93 127/94/94 92/95/95
f 92/95/95 127/94/94 131/96/96
f 92/95/95 131/96/96 91/97/97
f 91/97/97 131/96/96 135/98/98
f 91/97/97 135/98/98 90/99/99
f 90/99/99 135/98/98 139/100/100
f 90/99/99 139/100/100 89/101/101
f 89/101/101 139/100/100 143/102/102
f 89/101/101 143/102/102 88/103/103
f 88/103/103 143/102/102 87/104/104
f 87/104/104 143/102/102 142/105/105
f 87/104/104 142/105/105 86/106/106
f 86/106/106 142/105/105 141/107/107
f 86/106/106 141/107/107 85/108/108
f 85/108/108 141/107/107 140/109/109
f 85/108/108 140/109/109 84/110/110
f 84/110/110 140/109/109 24/111/111
f 84/110/110 24/111/111 23/112/112
f 80/80/80 81/113/113 103/82/82
f 103/82/82 81/113/113 102/114/114
f 103/82/82 102/114/114 107/84/84
f 107/84/84 102/114/114 106/115/115
f 107/84/84 106/115/115 111/86/86
f 111/86/86 106/115/115 110/116/116
f 111/86/86 110/116/116 115/88/88
f 115/88/88 110/116/116 114/117/117
f 115/88/88 114/117/117 119/90/90
f 119/90/90 114/117/117 118/118/118
f 119/90/90 118/118/118 123/92/92
f 123/92/92 118/118/118 122/119/119
f 123/92/92 122/119/119 127/94/94
f 127/94/94 122/119/119 126/120/120
f 127/94/94 126/120/120 131/96/96
f 131/96/96 126/120/120 130/121/121
f 131/96/96 130/121/121 135/98/98
f 135/98/98 130/121/121 134/122/122
f 135/98/98 134/122/122 139/100/100
f 139/100/100 134/122/122 138/123/123
f 139/100/100 138/123/123 143/102/102
f 143/102/102 138/123/123 142/105/105
f 81/113/113 82/124/124 102/114/114
f 102/114/114 82/124/124 101/125/125
f 102/114/114 101/125/125 106/115/115
f 106/115/115 101/125/125 105/126/126
f 106/115/115 105/126/126 110/116/116
f 110/116/116 105/126/126 109/127/127
f 110/116/116 109/127/127 114/117/117
f 114/117/117 109/127/127 113/128/128
f 114/117/117 113/128/128 118/118/118
f 118/118/118 113/128/128 117/129/129
f 118/118/118 117/129/129 122/119/119
f 122/119/119 117/129/129 121/130/130
f 122/119/119 121/130/130 126/120/120
f 126/120/120 121/130/130 125/131/131
f 126/120/120 125/131/131 130/121/121
f 130/121/121 125/131/131 129/132/132
f 130/121/121 129/132/132 134/122/122
f 134/122/122 129/132/132 133/133/133
f 134/122/122 133/133/133 138/123/123
f 138/123/123 133/133/133 137/134/134
f 138/123/123 137/134/134 142/105/105
f 142/105/105 137/134/134 141/107/107
f 82/124/124 83/135/135 101/125/125
f 101/125/125 83/135/135 100/136/136
f 101/125/125 100/136/136 105/126/126
f 105/126/126 100/136/136 104/137/137
f 105/126/126 104/137/137 109/127/127
f 109/127/127 104/137/137 108/138/138
f 109/127/127 108/138/138 113/128/128
f 113/128/128 108/138/138 112/139/139
f 113/128/128 112/139/139 117/129/129
f 117/129/129 112/139/139 116/140/140
f 117/129/129 116/140/140 121/130/130
f 121/130/130 116/140/140 120/141/141
f 121/130/130 120/141/141 125/131/131
f 125/131/131 120/141/141 124/142/142
f 125/131/131 124/142/142 129/132/132
f 129/132/132 124/142/142 128/143/143
f 129/132/132 128/143/143 133/133/133
f 133/133/133 128/143/143 132/144/144
f 133/133/133 132/144/144 137/134/134
f 137/134/134 132/144/144 136/145/145
f 137/134/134 136/145/145 141/107/107
f 141/107/107 136/145/145 140/109/109
f 83/135/135 1/146/146 100/136/136
f 100/136/136 1/146/146 34/147/147
f 100/136/136 34/147/147 104/137/137
f 104/137/137 34/147/147 33/148/148
f 104/137/137 33/148/148 108/138/138
f 108/138/138 33/148/148 32/149/149
f 108/138/138 32/149/149 112/139/139
f 112/139/139 32/149/149 31/150/150
f 112/139/139 31/150/150 116/140/140
f 116/140/140 31/150/150 30/151/151
f 116/140/140 30/151/151 120/141/141
f 120/141/141 30/151/151 29/152/152
f 120/141/141 29/152/152 124/142/142
f 124/142/142 29/152/152 28/153/153
f 124/142/142 28/153/153 128/143/143
f 128/143/143 28/153/153 27/154/154
f 128/143/143 27/154/154 132/144/144
f 132/144/144 27/154/154 26/155/155
f 132/144/144 26/155/155 136/145/145
f 136/145/145 26/155/155 25/156/156
f 136/145/145 25/156/156 140/109/109
f 140/109/109 25/156/156 24/111/111
f 144/157/157 79/158/158 156/159/159
f 156/159/159 79/158/158 99/160/160
f 156/159/159 99/160/160 155/161/161
f 155/161/161 99/160/160 98/162/162
f 155/161/161 98/162/162 154/163/163
f 154/163/163 98/162/162 97/164/164
f 154/163/163 97/164/164 153/165/165
f 153/165/165 97/164/164 96/166/166
f 153/165/165 96/166/166 152/167/167
f 152/167/167 96/166/166 95/168/168
f 152/167/167 95/168/168 151/169/169
f 151/169/169 95/168/168 94/170/170
f 151/169/169 94/170/170 150/171/171
f 150/171/171 94/170/170 93/172/172
f 150/171/171 93/172/172 149/173/173
f 149/173/173 93/172/172 92/174/174
f 149/173/173 92/174/174 148/175/175
f 148/175/175 92/174/174 91/176/176
f 148/175/175 91/176/176 147/177/177
f 147/177/177 91/176/176 90/178/178
f 147/177/177 90/178/178 146/179/179
f 146/179/179 90/178/178 89/180/180
f 146/179/179 89/180/180 145/181/181
f 145/181/181 89/180/180 88/182/182
f 157/183/183 158/184/184 179/185/185
f 179/185/185 158/184/184 184/186/186
f 179/185/185 184/186/186 178/187/187
f 178/187/187 184/186/186 189/188/188
f 178/187/187 189/188/188 177/189/189
f 177/189/189 189/188/188 194/190/190
f 177/189/189 194/190/190 176/191/191
f 176/191/191 194/190/190 199/192/192
f 176/191/191 199/192/192 175/193/193
f 175/193/193 199/192/192 204/194/194
f 175/193/193 204/194/194 174/195/195
f 174/195/195 204/194/194 209/196/196
f 174/195/195 209/196/196 173/197/197
f 173/197/197 209/196/196 214/198/198
f 173/197/197 214/198/198 172/199/199
f 172/199/199 214/198/198 219/200/200
f 172/199/199 219/200/200 171/201/201
f 171/201/201 219/200/200 224/202/202
f 171/201/201 224/202/202 170/203/203
f 170/203/203 224/202/202 229/204/204
f 170/203/203 229/204/204 169/205/205
f 169/205/205 229/204/204 234/206/206
f 169/205/205 234/206/206 168/207/207
f 168/207/207 234/206/206 167/208/208
f 167/208/208 234/206/206 233/209/209
f 167/208/208 233/209/209 166/210/210
f 166/210/210 233/209/209 232/211/211
f 166/210/210 232/211/211 165/212/212
f 165/212/212 232/211/211 231/213/213
f 165/212/212 231/213/213 164/214/214
f 164/214/214 231/213/213 230/215/215
f 164/214/214 230/215/215 163/216/216
f 163/216/216 230/215/215 146/217/217
f 163/216/216 146/217/217 145/218/218
f 158/184/184 159/219/219 184/186/186
f 184/186/186 159/219/219 183/220/220
f 184/186/186 183/220/220 189/188/188
f 189/188/188 183/220/220 188/221/221
f 189/188/188 188/221/221 194/190/190
f 194/190/190 188/221/221 193/222/222
f 194/190/190 193/222/222 199/192/192
f 199/192/192 193/222/222 198/223/223
f 199/192/192 198/223/223 204/194/194
f 204/194/194 198/223/223 203/224/224
f 204/194/194 203/224/224 209/196/196
f 209/196/196 203/224/224 208/225/225
f 209/196/196 208/225/225 214/198/198
f 214/198/198 208/225/225 213/226/226
f 214/198/198 213/226/226 219/200/200
f 219/200/200 213/226/226 218/227/227
f 219/200/200 218/227/227 224/202/202
f 224/202/202 218/227/227 223/228/228
f 224/202/202 223/228/228 229/204/204
f 229/204/204 223/228/228 228/229/229
f 229/204/204 228/229/229 234/206/206
f 234/206/206 228/229/229 233/209/209
f 159/219/219 160/230/230 183/220/220
f 183/220/220 160/230/230 182/231/231
f 183/220/220 182/231/231 188/221/221
f 188/221/221 182/231/231 187/232/232
f 188/221/221 187/232/232 193/222/222
f 193/222/222 187/232/232 192/233/233
f 193/222/222 192/233/233 198/223/223
f 198/223/223 192/233/233 197/234/234
f 198/223/223 197/234/234 203/224/224
f 203/224/224 197/234/234 202/235/235
f 203/224/224 202/235/235 208/225/225
f 208/225/225 202/235/235 207/236/236
f 208/225/225 207/236/236 213/226/226
f 213/226/226 207/236/236 212/237/237
f 213/226/226 212/237/237 218/227/227
f 218/227/227 212/237/237 217/238/238
f 218/227/227 217/238/238 223/228/228
f 223/228/228 217/238/238 222/239/239
f 223/228/228 222/239/239 228/229/229
f 228/229/229 222/239/239 227/240/240
f 228/229/229 227/240/240 233/209/209
f 233/209/209 227/240/240 232/211/211
f 160/230/230 161/241/241 182/231/231
f 182/231/231 161/241/241 181/242/242
f 182/231/231 181/242/242 187/232/232
f 187/232/232 181/242/242 186/243/243
f 187/232/232 186/243/243 192/233/233
f 192/233/233 186/243/243 191/244/244
f 192/233/233 191/244/244 197/234/234
f 197/234/234 191/244/244 196/245/245
f 197/234/234 196/245/245 202/235/235
f 202/235/235 196/245/245 201/246/246
f 202/235/235 201/246/246 207/236/236
f 207/236/236 201/246/246 206/247/247
f 207/236/236 206/247/247 212/237/237
f 212/237/237 206/247/247 211/248/248
f 212/237/237 211/248/248 217/238/238
f 217/238/238 211/248/248 216/249/249
f 217/238/238 216/249/249 222/239/239
f 222/239/239 216/249/249 221/250/250
f 222/239/239 221/250/250 227/240/240
f 227/240/240 221/250/250 226/251/251
f 227/240/240 226/251/251 232/211/211
f 232/211/211 226/251/251 231/213/213
f 161/241/241 162/252/252 181/242/242
f 181/242/242 162/252/252 180/253/253
f 181/242/242 180/253/253 186/243/243
f 186/243/243 180/253/253 185/254/254
f 186/243/243 185/254/254 191/244/244
f 191/244/244 185/254/254 190/255/255
f 191/244/244 190/255/255 196/245/245
f 196/245/245 190/255/255 195/256/256
f 196/245/245 195/256/256 201/246/246
f 201/246/246 195/256/256 200/257/257
f 201/246/246 200/257/257 206/247/247
f 206/247/247 200/257/257 205/258/258
f 206/247/247 205/258/258 211/248/248
f 211/248/248 205/258/258 210/259/259
f 211/248/248 210/259/259 216/249/249
f 216/249/249 210/259/259 215/260/260
f 216/249/249 215/260/260 221/250/250
f 221/250/250 215/260/260 220/261/261
f 221/250/250 220/261/261 226/251/251
f 226/251/251 220/261/261 225/262/262
f 226/251/251 225/262/262 231/213/213
f 231/213/213 225/262/262 230/215/215
f 162/252/252 144/263/263 180/253/253
f 180/253/253 144/263/263 156/264/264
f 180/253/253 156/264/264 185/254/254
f 185/254/254 156/264/264 155/265/265
f 185/254/254 155/265/265 190/255/255
f 190/255/255 155/265/265 154/266/266
f 190/255/255 154/266/266 195/256/256
f 195/256/256 154/266/266 153/267/267
f 195/256/256 153/267/267 200/257/257
f 200/257/257 153/267/267 152/268/268
f 200/257/257 152/268/268 205/258/258
f 205/258/258 152/268/268 151/269/269
f 205/258/258 151/269/269 210/259/259
f 210/259/259 151/269/269 150/270/270
f 210/259/259 150/270/270 215/260/260
f 215/260/260 150/270/270 149/271/271
f 215/260/260 149/271/271 220/261/261
f 220/261/261 149/271/271 148/272/272
f 220/261/261 148/272/272 225/262/262
f 225/262/262 148/272/272 147/273/273
f 225/262/262 147/273/273 230/215/215
f 230/215/215 147/273/273 146/217/217
f 235/274/274 236/275/275 257/276/276
f 257/276/276 236/275/275 262/277/277
f 257/276/276 262/277/277 256/278/278
f 256/278/278 262/277/277 267/279/279
f 256/278/278 267/279/279 255/280/280
f 255/280/280 267/279/279 272/281/281
f 255/280/280 272/281/281 254/282/282
f 254/282/282 272/281/281 277/283/283
f 254/282/282 277/283/283 253/284/284
f 253/284/284 277/283/283 282/285/285
f 253/284/284 282/285/285 252/286/286
f 252/286/286 282/285/285 287/287/287
f 252/286/286 287/287/287 251/288/288
f 251/288/288 287/287/287 292/289/289
f 251/288/288 292/289/289 250/290/290
f 250/290/290 292/289/289 297/291/291
f 250/290/290 297/291/291 249/292/292
f 249/292/292 297/291/291 302/293/293
f 249/292/292 302/293/293 248/294/294
f 248/294/294 302/293/293 307/295/295
f 248/294/294 307/295/295 247/296/296
f 247/296/296 307/295/295 312/297/297
f 247/296/296 312/297/297 246/298/298
f 246/298/298 312/297/297 245/299/299
f 245/299/299 312/297/297 311/300/300
f 245/299/299 311/300/300 244/301/301
f 244/301/301 311/300/300 310/302/302
f 244/301/301 310/302/302 243/303/303
f 243/303/303 310/302/302 309/304/304
f 243/303/303 309/304/304 242/305/305
f 242/305/305 309/304/304 308/306/306
f 242/305/305 308/306/306 241/307/307
f 241/307/307 308/306/306 169/308/308
f 241/307/307 169/308/308 168/309/309
f 236/275/275 237/310/310 262/277/277
f 262/277/277 237/310/310 261/311/311
f 262/277/277 261/311/311 267/279/279
f 267/279/279 261/311/311 266/312/312
f 267/279/279 266/312/312 272/281/281
f 272/281/281 266/312/312 271/313/313
f 272/281/281 271/313/313 277/283/283
f 277/283/283 271/313/313 276/314/314
f 277/283/283 276/314/314 282/285/285
f 282/285/285 276/314/314 281/315/315
f 282/285/285 281/315/315 287/287/287
f 287/287/287 281/315/315 286/316/316
f 287/287/287 286/316/316 292/289/289
f 292/289/289 286/316/316 291/317/317
f 292/289/289 291/317/317 297/291/291
f 297/291/291 291/317/317 296/318/318
f 297/291/291 296/318/318 302/293/293
f 302/293/293 296/318/318 301/319/319
f 302/293/293 301/319/319 307/295/295
f 307/295/295 301/319/319 306/320/320
f 307/295/295 306/320/320 312/297/297
f 312/297/297 306/320/320 311/300/300
f 237/310/310 238/321/321 261/311/311
f 261/311/311 238/321/321 260/322/322
f 261/311/311 260/322/322 266/312/312
f 266/312/312 260/322/322 265/323/323
f 266/312/312 265/323/323 271/313/313
f 271/313/313 265/323/323 270/324/324
f 271/313/313 270/324/324 276/314/314
f 276/314/314 270/324/324 275/325/325
f 276/314/314 275/325/325 281/315/315
f 281/315/315 275/325/325 280/326/326
f 281/315/315 280/326/326 286/316/316
f 286/316/316 280/326/326 285/327/327
f 286/316/316 285/327/327 291/317/317
f 291/317/317 285/327/327 290/328/328
f 291/317/317 290/328/328 296/318/318
f 296/318/318 290/328/328 295/329/329
f 296/318/318 295/329/329 301/319/319
f 301/319/319 295/329/329 300/330/330
f 301/319/319 300/330/330 306/320/320
f 306/320/320 300/330/330 305/331/331
f 306/320/320 305/331/331 311/300/300
f 311/300/300 305/331/331 310/302/302
f 238/321/321 239/332/332 260/322/322
f 260/322/322 239/332/332 259/333/333
f 260/322/322 259/333/333 265/323/323
f 265/323/323 259/333/333 264/334/334
f 265/323/323 264/334/334 270/324/324
f 270/324/324 264/334/334 269/335/335
f 270/324/324 269/335/335 275/325/325
f 275/325/325 269/335/335 274/336/336
f 275/325/325 274/336/336 280/326/326
f 280/326/326 274/336/336 279/337/337
f 280/326/326 279/337/337 285/327/327
f 285/327/327 279/337/337 284/338/338
f 285/327/327 284/338/338 290/328/328
f 290/328/328 284/338/338 289/339/339
f 290/328/328 289/339/339 295/329/329
f 295/329/329 289/339/339 294/340/340
f 295/329/329 294/340/340 300/330/330
f 300/330/330 294/340/340 299/341/341
f 300/330/330 299/341/341 305/331/331
f 305/331/331 299/341/341 304/342/342
f 305/331/331 304/342/342 310/302/302
f 310/302/302 304/342/342 309/304/304
f 239/332/332 240/343/343 259/333/333
f 259/333/333 240/343/343 258/344/344
f 259/333/333 258/344/344 264/334/334
f 264/334/334 258/344/344 263/345/345
f 264/334/334 263/345/345 269/335/335
f 269/335/335 263/345/345 268/346/346
f 269/335/335 268/346/346 274/336/336
f 274/336/336 268/346/346 273/347/347
f 274/336/336 273/347/347 279/337/337
f 279/337/337 273/347/347 278/348/348
f 279/337/337 278/348/348 284/338/338
f 284/338/338 278/348/348 283/349/349
f 284/338/338 283/349/349 289/339/339
f 289/339/339 283/349/349 288/350/350
f 289/339/339 288/350/350 294/340/340
f 294/340/340 288/350/350 293/351/351
f 294/340/340 293/351/351 299/341/341
f 299/341/341 293/351/351 298/352/352
f 299/341/341 298/352/352 304/342/342
f 304/342/342 298/352/352 303/353/353
f 304/342/342 303/353/353 309/304/304
f 309/304/304 303/353/353 308/306/306
f 240/343/343 157/354/354 258/344/344
f 258/344/344 157/354/354 179/355/355
f 258/344/344 179/355/355 263/345/345
f 263/345/345 179/355/355 178/356/356
f 263/345/345 178/356/356 268/346/346
f 268/346/346 178/356/356 177/357/357
f 268/346/346 177/357/357 273/347/347
f 273/347/347 177/357/357 176/358/358
f 273/347/347 176/358/358 278/348/348
f 278/348/348 176/358/358 175/359/359
f 278/348/348 175/359/359 283/349/349
f 283/349/349 175/359/359 174/360/360
f 283/349/349 174/360/360 288/350/350
f 288/350/350 174/360/360 173/361/361
f 288/350/350 173/361/361 293/351/351
f 293/351/351 173/361/361 172/362/362
f 293/351/351 172/362/362 298/352/352
f 298/352/352 172/362/362 171/363/363
f 298/352/352 171/363/363 303/353/353
f 303/353/353 171/363/363 170/364/364
f 303/353/353 170/364/364 308/306/306
f 308/306/306 170/364/364 169/308/308
f 313/365/365 314/366/366 335/367/367
f 335/367/367 314/366/366 340/368/368
f 335/367/367 340/368/368 334/369/369
f 334/369/369 340/368/368 345/370/370
f 334/369/369 345/370/370 333/371/371
f 333/371/371 345/370/370 350/372/372
f 333/371/371 350/372/372 332/373/373
f 332/373/373 350/372/372 355/374/374
f 332/373/373 355/374/374 331/375/375
f 331/375/375 355/374/374 360/376/376
f 331/375/375 360/376/376 330/377/377
f 330/377/377 360/376/376 365/378/378
f 330/377/377 365/378/378 329/379/379
f 329/379/379 365/378/378 370/380/380
f 329/379/379 370/380/380 328/381/381
f 328/381/381 370/380/380 375/382/382
f 328/381/381 375/382/382 327/383/383
f 327/383/383 375/382/382 380/384/384
f 327/383/383 380/384/384 326/385/385
f 326/385/385 380/384/384 385/386/386
f 326/385/385 385/386/386 325/387/387
f 325/387/387 385/386/386 390/388/388
f 325/387/387 390/388/388 324/389/389
f 324/389/389 390/388/388 323/390/390
f 323/390/390 390/388/388 389/391/391
f 323/390/390 389/391/391 322/392/392
f 322/392/392 389/391/391 388/393/393
f 322/392/392 388/393/393 321/394/394
f 321/394/394 388/393/393 387/395/395
f 321/394/394 387/395/395 320/396/396
f 320/396/396 387/395/395 386/397/397
f 320/396/396 386/397/397 319/398/398
f 319/398/398 386/397/397 247/399/399
f 319/398/398 247/399/399 246/400/400
f 314/366/366 315/401/401 340/368/368
f 340/368/368 315/401/401 339/402/402
f 340/368/368 339/402/402 345/370/370
f 345/370/370 339/402/402 344/403/403
f 345/370/370 344/403/403 350/372/372
f 350/372/372 344/403/403 349/404/404
f 350/372/372 349/404/404 355/374/374
f 355/374/374 349/404/404 354/405/405
f 355/374/374 354/405/405 360/376/376
f 360/376/376 354/405/405 359/406/406
f 360/376/376 359/406/406 365/378/378
f 365/378/378 359/406/406 364/407/407
f 365/378/378 364/407/407 370/380/380
f 370/380/380 364/407/407 369/408/408
f 370/380/380 369/408/408 375/382/382
f 375/382/382 369/408/408 374/409/409
f 375/382/382 374/409/409 380/384/384
f 380/384/384 374/409/409 379/410/410
f 380/384/384 379/410/410 385/386/386
f 385/386/386 379/410/410 384/411/411
f 385/386/386 384/411/411 390/388/388
f 390/388/388 384/411/411 389/391/391
f 315/401/401 316/412/412 339/402/402
f 339/402/402 316/412/412 338/413/413
f 339/402/402 338/413/413 344/403/403
f 344/403/403 338/413/413 343/414/414
f 344/403/403 343/414/414 349/404/404
f 349/404/404 343/414/414 348/415/415
f 349/404/404 348/415/415 354/405/405
f 354/405/405 348/415/415 353/416/416
f 354/405/405 353/416/416 359/406/406
f 359/406/406 353/416/416 358/417/417
f 359/406/406 358/417/417 364/407/407
f 364/407/407 358/417/417 363/418/418
f 364/407/407 363/418/418 369/408/408
f 369/408/408 363/418/418 368/419/419
f 369/408/408 368/419/419 374/409/409
f 374/409/409 368/419/419 373/420/420
f 374/409/409 373/420/420 379/410/410
f 379/410/410 373/420/420 378/421/421
f 379/410/410 378/421/421 384/411/411
f 384/411/411 378/421/421 383/422/422
f 384/411/411 383/422/422 389/391/391
f 389/391/391 383/422/422 388/393/393
f 316/412/412 317/423/423 338/413/413
f 338/413/413 317/423/423 337/424/424
f 338/413/413 337/424/424 343/414/414
f 343/414/414 337/424/424 342/425/425
f 343/414/414 342/425/425 348/415/415
f 348/415/415 342/425/425 347/426/426
f 348/415/415 347/426/426 353/416/416
f 353/416/416 347/426/426 352/427/427
f 353/416/416 352/427/427 358/417/417
f 358/417/417 352/427/427 357/428/428
f 358/417/417 357/428/428 363/418/418
f 363/418/418 357/428/428 362/429/429
f 363/418/418 362/429/429 368/419/419
f 368/419/419 362/429/429 367/430/430
f 368/419/419 367/430/430 373/420/420
f 373/420/420 367/430/430 372/431/431
f 373/420/420 372/431/431 378/421/421
f 378/421/421 372/431/431 377/432/432
f 378/421/421 377/432/432 383/422/422
f 383/422/422 377/432/432 382/433/433
f 383/422/422 382/433/433 388/393/393
f 388/393/393 382/433/433 387/395/395
f 317/423/423 318/434/434 337/424/424
f 337/424/424 318/434/434 336/435/435
f 337/424/424 336/435/435 342/425/425
f 342/425/425 336/435/435 341/436/436
f 342/425/425 341/436/436 347/426/426
f 347/426/426 341/436/436 346/437/437
f 347/426/426 346/437/437 352/427/427
f 352/427/427 346/437/437 351/438/438
f 352/427/427 351/438/438 357/428/428
f 357/428/428 351/438/438 356/439/439
f 357/428/428 356/439/439 362/429/429
f 362/429/429 356/439/439 361/440/440
f 362/429/429 361/440/440 367/430/430
f 367/430/430 361/440/440 366/441/441
f 367/430/430 366/441/441 372/431/431
f 372/431/431 366/441/441 371/442/442
f 372/431/431 371/442/442 377/432/432
f 377/432/432 371/442/442 376/443/443
f 377/432/432 376/443/443 382/433/433
f 382/433/433 376/443/443 381/444/444
f 382/433/433 381/444/444 387/395/395
f 387/395/395 381/444/444 386/397/397
f 318/434/434 235/445/445 336/435/435
f 336/435/435 235/445/445 257/446/446
f 336/435/435 257/446/446 341/436/436
f 341/436/436 257/446/446 256/447/447
f 341/436/436 256/447/447 346/437/437
f 346/437/437 256/447/447 255/448/448
f 346/437/437 255/448/448 351/438/438
f 351/438/438 255/448/448 254/449/449
f 351/438/438 254/449/449 356/439/439
f 356/439/439 254/449/449 253/450/450
f 356/439/439 253/450/450 361/440/440
f 361/440/440 253/450/450 252/451/451
f 361/440/440 252/451/451 366/441/441
f 366/441/441 252/451/451 251/452/452
f 366/441/441 251/452/452 371/442/442
f 371/442/442 251/452/452 250/453/453
f 371/442/442 250/453/453 376/443/443
f 376/443/443 250/453/453 249/454/454
f 376/443/443 249/454/454 381/444/444
f 381/444/444 249/454/454 248/455/455
f 381/444/444 248/455/455 386/397/397
f 386/397/397 248/455/455 247/399/399
f 391/456/456 313/457/457 403/458/458
f 403/458/458 313/457/457 335/459/459
f 403/458/458 335/459/459 402/460/460
f 402/460/460 335/459/459 334/461/461
f 402/460/460 334/461/461 401/462/462
f 401/462/462 334/461/461 333/463/463
f 401/462/462 333/463/463 400/464/464
f 400/464/464 333/463/463 332/465/465
f 400/464/464 332/465/465 399/466/466
f 399/466/466 332/465/465 331/467/467
f 399/466/466 331/467/467 398/468/468
f 398/468/468 331/467/467 330/469/469
f 398/468/468 330/469/469 397/470/470
f 397/470/470 330/469/469 329/471/471
f 397/470/470 329/471/471 396/472/472
f 396/472/472 329/471/471 328/473/473
f 396/472/472 328/473/473 395/474/474
f 395/474/474 328/473/473 327/475/475
f 395/474/474 327/475/475 394/476/476
f 394/476/476 327/475/475 326/477/477
f 394/476/476 326/477/477 393/478/478
f 393/478/478 326/477/477 325/479/479
f 393/478/478 325/479/479 392/480/480
f 392/480/480 325/479/479 324/481/481
f 6/482/482 404/483/483 7/484/484
f 7/484/484 404/483/483 415/485/485
f 7/484/484 415/485/485 8/486/486
f 8/486/486 415/485/485 419/487/487
f 8/486/486 419/487/487 9/488/488
f 9/488/488 419/487/487 423/489/489
f 9/488/488 423/489/489 10/490/490
f 10/490/490 423/489/489 427/491/491
f 10/490/490 427/491/491 11/492/492
f 11/492/492 427/491/491 431/493/493
f 11/492/492 431/493/493 12/494/494
f 12/494/494 431/493/493 435/495/495
f 12/494/494 435/495/495 13/496/496
f 13/496/496 435/495/495 439/497/497
f 13/496/496 439/497/497 14/498/498
f 14/498/498 439/497/497 443/499/499
f 14/498/498 443/499/499 15/500/500
f 15/500/500 443/499/499 447/501/501
f 15/500/500 447/501/501 16/502/502
f 16/502/502 447/501/501 451/503/503
f 16/502/502 451/503/503 17/504/504
f 17/504/504 451/503/503 455/505/505
f 17/504/504 455/505/505 18/506/506
f 18/506/506 455/505/505 411/507/507
f 411/507/507 455/505/505 454/508/508
f 411/507/507 454/508/508 410/509/509
f 410/509/509 454/508/508 453/510/510
f 410/509/509 453/510/510 409/511/511
f 409/511/511 453/510/510 452/512/512
f 409/511/511 452/512/512 408/513/513
f 408/513/513 452/512/512 393/514/514
f 408/513/513 393/514/514 392/515/515
f 404/483/483 405/516/516 415/485/485
f 415/485/485 405/516/516 414/517/517
f 415/485/485 414/517/517 419/487/487
f 419/487/487 414/517/517 418/518/518
f 419/487/487 418/518/518 423/489/489
f 423/489/489 418/518/518 422/519/519
f 423/489/489 422/519/519 427/491/491
f 427/491/491 422/519/519 426/520/520
f 427/491/491 426/520/520 431/493/493
f 431/493/493 426/520/520 430/521/521
f 431/493/493 430/521/521 435/495/495
f 435/495/495 430/521/521 434/522/522
f 435/495/495 434/522/522 439/497/497
f 439/497/497 434/522/522 438/523/523
f 439/497/497 438/523/523 443/499/499
f 443/499/499 438/523/523 442/524/524
f 443/499/499 442/524/524 447/501/501
f 447/501/501 442/524/524 446/525/525
f 447/501/501 446/525/525 451/503/503
f 451/503/503 446/525/525 450/526/526
f 451/503/503 450/526/526 455/505/505
f 455/505/505 450/526/526 454/508/508
f 405/516/516 406/527/527 414/517/517
f 414/517/517 406/527/527 413/528/528
f 414/517/517 413/528/528 418/518/518
f 418/518/518 413/528/528 417/529/529
f 418/518/518 417/529/529 422/519/519
f 422/519/519 417/529/529 421/530/530
f 422/519/519 421/530/530 426/520/520
f 426/520/520 421/530/530 425/531/531
f 426/520/520 425/531/531 430/521/521
f 430/521/521 425/531/531 429/532/532
f 430/521/521 429/532/532 434/522/522
f 434/522/522 429/532/532 433/533/533
f 434/522/522 433/533/533 438/523/523
f 438/523/523 433/533/533 437/534/534
f 438/523/523 437/534/534 442/524/524
f 442/524/524 437/534/534 441/535/535
f 442/524/524 441/535/535 446/525/525
f 446/525/525 441/535/535 445/536/536
f 446/525/525 445/536/536 450/526/526
f 450/526/526 445/536/536 449/537/537
f 450/526/526 449/537/537 454/508/508
f 454/508/508 449/537/537 453/510/510
f 406/527/527 407/538/538 413/528/528
f 413/528/528 407/538/538 412/539/539
f 413/528/528 412/539/539 417/529/529
f 417/529/529 412/539/539 416/540/540
f 417/529/529 416/540/540 421/530/530
f 421/530/530 416/540/540 420/541/541
f 421/530/530 420/541/541 425/531/531
f 425/531/531 420/541/541 424/542/542
f 425/531/531 424/542/542 429/532/532
f 429/532/532 424/542/542 428/543/543
f 429/532/532 428/543/543 433/533/533
f 433/533/533 428/543/543 432/544/544
f 433/533/533 432/544/544 437/534/534
f 437/534/534 432/544/544 436/545/545
f 437/534/534 436/545/545 441/535/535
f 441/535/535 436/545/545 440/546/546
f 441/535/535 440/546/546 445/536/536
f 445/536/536 440/546/546 444/547/547
f 445/536/536 444/547/547 449/537/537
f 449/537/537 444/547/547 448/548/548
f 449/537/537 448/548/548 453/510/510
f 453/510/510 448/548/548 452/512/512
f 407/538/538 391/549/549 412/539/539
f 412/539/539 391/549/549 403/550/550
f 412/539/539 403/550/550 416/540/540
f 416/540/540 403/550/550 402/551/551
f 416/540/540 402/551/551 420/541/541
f 420/541/541 402/551/551 401/552/552
f 420/541/541 401/552/552 424/542/542
f 424/542/542 401/552/552 400/553/553
f 424/542/542 400/553/553 428/543/543
f 428/543/543 400/553/553 399/554/554
f 428/543/543 399/554/554 432/544/544
f 432/544/544 399/554/554 398/555/555
f 432/544/544 398/555/555 436/545/545
f 436/545/545 398/555/555 397/556/556
f 436/545/545 397/556/556 440/546/546
f 440/546/546 397/556/556 396/557/557
f 440/546/546 396/557/557 444/547/547
f 444/547/547 396/557/557 395/558/558
f 444/547/547 395/558/558 448/548/548
f 448/548/548 395/558/558 394/559/559
f 448/548/548 394/559/559 452/512/512
f 452/512/512 394/559/559 393/514/514
f 411/560/560 319/561/561 18/562/562
f 18/562/562 319/561/561 246/563/563
f 18/562/562 246/563/563 245/564/564
f 319/561/561 411/560/560 320/565/565
f 320/565/565 411/560/560 410/566/566
f 320/565/565 410/566/566 321/567/567
f 321/567/567 410/566/566 409/568/568
f 321/567/567 409/568/568 322/569/569
f 322/569/569 409/568/568 408/570/570
f 322/569/569 408/570/570 323/571/571
f 323/571/571 408/570/570 392/572/572
f 323/571/571 392/572/572 324/573/573
f 18/562/562 245/564/564 19/574/574
f 19/574/574 245/564/564 244/575/575
f 19/574/574 244/575/575 20/576/576
f 20/576/576 244/575/575 243/577/577
f 20/576/576 243/577/577 21/578/578
f 21/578/578 243/577/577 242/579/579
f 21/578/578 242/579/579 22/580/580
f 22/580/580 242/579/579 241/581/581
f 22/580/580 241/581/581 23/582/582
f 23/582/582 241/581/581 168/583/583
f 23/582/582 168/583/583 167/584/584
f 167/584/584 166/585/585 23/582/582
f 23/582/582 166/585/585 84/586/586
f 84/586/586 166/585/585 165/587/587
f 84/586/586 165/587/587 85/588/588
f 85/588/588 165/587/587 164/589/589
f 85/588/588 164/589/589 86/590/590
f 86/590/590 164/589/589 163/591/591
f 86/590/590 163/591/591 87/592/592
f 87/592/592 163/591/591 145/593/593
f 87/592/592 145/593/593 88/594/594
f 313/595/595 391/596/596 314/597/597
f 314/597/597 391/596/596 407/598/598
f 314/597/597 407/598/598 315/599/599
f 315/599/599 407/598/598 406/600/600
f 315/599/599 406/600/600 316/601/601
f 316/601/601 406/600/600 405/602/602
f 316/601/601 405/602/602 317/603/603
f 317/603/603 405/602/602 404/604/604
f 317/603/603 404/604/604 318/605/605
f 318/605/605 404/604/604 6/606/606
f 318/605/605 6/606/606 235/607/607
f 235/607/607 6/606/606 236/608/608
f 236/608/608 6/606/606 5/609/609
f 236/608/608 5/609/609 237/610/610
f 237/610/610 5/609/609 4/611/611
f 237/610/610 4/611/611 238/612/612
f 238/612/612 4/611/611 3/613/613
f 238/612/612 3/613/613 239/614/614
f 239/614/614 3/613/613 2/615/615
f 239/614/614 2/615/615 240/616/616
f 240/616/616 2/615/615 1/617/617
f 240/616/616 1/617/617 157/618/618
f 157/618/618 1/617/617 158/619/619
f 158/619/619 1/617/617 159/620/620
f 159/620/620 1/617/617 83/621/621
f 159/620/620 83/621/621 160/622/622
f 160/622/622 83/621/621 82/623/623
f 160/622/622 82/623/623 161/624/624
f 161/624/624 82/623/623 81/625/625
f 161/624/624 81/625/625 162/626/626
f 162/626/626 81/625/625 80/627/627
f 162/626/626 80/627/627 144/628/628
f 144/628/628 80/627/627 79/629/629
# 455 vertices
# 629 texture params
# 629 normals
# 906 facets

# 1 groups
